<?xml version="1.0" standalone="no"?>
<!DOCTYPE svg PUBLIC "-//W3C//DTD SVG 20010904//EN"
 "http://www.w3.org/TR/2001/REC-SVG-20010904/DTD/svg10.dtd">
<svg version="1.0" xmlns="http://www.w3.org/2000/svg"
 width="1903.000000pt" height="915.000000pt" viewBox="0 0 1903.000000 915.000000"
 preserveAspectRatio="xMidYMid meet">

<g transform="translate(0.000000,915.000000) scale(0.100000,-0.100000)"
fill="#000000" stroke="none">
<path d="M9502 9143 l9508 -3 0 -4555 0 -4556 -672 1 c-370 0 -4648 0 -9505 0
-7845 0 -8833 -2 -8833 -15 0 -13 1064 -15 9515 -15 l9515 0 0 4575 0 4575
-9517 -2 -9518 -3 9507 -2z"/>
<path d="M201 8966 c-37 -21 -50 -55 -51 -133 0 -123 29 -153 150 -153 120 0
150 30 150 150 0 81 -13 116 -51 136 -36 18 -165 18 -198 0z m137 -119 c2 -37
7 -67 12 -67 6 0 10 13 10 29 0 27 15 49 25 39 7 -7 -15 -77 -27 -84 -19 -12
-38 28 -40 85 -1 49 -2 46 -7 -24 -6 -73 -8 -80 -28 -83 -22 -3 -23 0 -23 67
0 41 -4 71 -10 71 -5 0 -10 -13 -10 -29 0 -17 -5 -33 -11 -36 -17 -11 -19 -1
-8 38 20 75 51 56 60 -36 l6 -62 1 76 c2 80 6 92 32 87 11 -3 16 -19 18 -71z"/>
<path d="M3478 8922 c-28 -3 -28 -4 -28 -82 0 -78 0 -79 28 -82 15 -2 51 -1
80 0 l52 4 0 78 0 78 -52 4 c-29 1 -65 2 -80 0z m17 -83 c0 -50 -3 -64 -15
-64 -11 0 -16 14 -18 54 -4 61 3 84 21 78 8 -2 12 -25 12 -68z m100 1 l0 -65
-40 0 -40 0 -3 54 c-4 74 1 83 45 79 l38 -3 0 -65z"/>
<path d="M4462 8865 l-2 -70 32 -2 c40 -3 58 12 58 48 0 35 -30 55 -59 39 -17
-9 -20 -6 -24 22 -2 18 -5 2 -5 -37z m73 -15 c7 -23 -10 -50 -31 -50 -21 0
-38 38 -23 56 17 21 47 17 54 -6z"/>
<path d="M4030 8855 l0 -65 33 0 c42 0 67 26 67 68 0 40 -23 62 -66 62 l-34 0
0 -65z m74 39 c33 -33 3 -101 -41 -92 -14 2 -19 14 -21 56 -3 50 -2 52 22 52
13 0 32 -7 40 -16z"/>
<path d="M4350 8855 c0 -69 17 -90 22 -27 2 29 7 37 23 37 16 0 21 -9 26 -40
l6 -40 2 46 c1 49 -12 65 -44 53 -10 -4 -15 0 -15 15 0 12 -4 21 -10 21 -6 0
-10 -28 -10 -65z"/>
<path d="M4930 8899 c0 -15 -4 -19 -16 -15 -38 14 -75 -35 -54 -74 8 -15 20
-19 50 -18 l40 1 0 64 c0 35 -4 63 -10 63 -5 0 -10 -9 -10 -21z m-2 -58 c5
-30 -10 -45 -37 -36 -21 6 -29 43 -14 59 15 15 48 1 51 -23z"/>
<path d="M578 8893 c20 -4 22 -10 22 -69 0 -36 4 -64 10 -64 6 0 10 28 10 64
0 59 2 65 23 69 12 2 -3 4 -33 4 -30 0 -45 -2 -32 -4z"/>
<path d="M1120 8885 c-18 -22 -6 -42 35 -59 26 -11 36 -21 33 -33 -5 -24 -39
-29 -55 -7 -7 10 -16 15 -19 11 -13 -12 19 -37 47 -37 32 0 52 27 38 51 -5 9
-22 22 -39 29 -16 7 -30 19 -30 27 0 22 29 27 50 8 21 -19 28 -7 8 13 -17 17
-53 15 -68 -3z"/>
<path d="M4174 8875 c-18 -15 -18 -15 7 -9 15 3 30 1 33 -5 4 -6 -1 -11 -11
-11 -30 0 -55 -23 -47 -43 4 -13 16 -17 40 -15 32 2 34 4 34 38 0 32 -14 60
-30 60 -3 0 -15 -7 -26 -15z m34 -61 c-9 -9 -21 -13 -27 -10 -20 13 -11 26 16
26 25 0 26 -1 11 -16z"/>
<path d="M4273 8883 c-23 -9 -15 -42 12 -49 14 -3 25 -12 25 -20 0 -16 -26
-19 -35 -4 -3 6 -11 10 -17 10 -6 0 -6 -6 2 -16 17 -20 64 -14 68 9 3 12 -6
21 -27 28 -37 13 -42 33 -6 27 28 -6 34 6 9 16 -9 3 -16 6 -17 5 -1 0 -8 -3
-14 -6z"/>
<path d="M4590 8870 c-23 -23 -24 -33 -10 -61 12 -21 50 -25 68 -7 19 19 15
66 -7 78 -26 13 -28 13 -51 -10z m58 -26 c4 -25 -22 -49 -43 -40 -15 5 -21 47
-8 60 14 14 48 1 51 -20z"/>
<path d="M4704 8875 c-18 -14 -17 -14 14 -9 19 4 32 2 32 -3 0 -6 -14 -13 -31
-17 -25 -5 -30 -10 -27 -28 2 -18 10 -23 36 -24 31 -1 32 0 32 41 0 30 -5 45
-16 49 -20 8 -17 8 -40 -9z m44 -57 c-3 -7 -13 -13 -23 -13 -10 0 -20 6 -22
13 -3 7 5 12 22 12 17 0 25 -5 23 -12z"/>
<path d="M4820 8881 c-8 -6 -18 -7 -22 -5 -4 3 -7 -16 -7 -43 1 -26 3 -39 6
-28 2 11 6 30 9 43 2 12 11 22 19 22 8 0 15 5 15 10 0 12 -1 12 -20 1z"/>
<path d="M672 8848 c-15 -15 -15 -61 0 -76 17 -17 53 -15 68 3 15 18 7 19 -19
3 -15 -9 -23 -9 -35 1 -26 22 -19 31 24 31 26 0 40 5 40 13 0 19 -21 37 -45
37 -12 0 -26 -5 -33 -12z m56 -15 c2 -9 -7 -13 -28 -13 -28 0 -31 2 -20 15 15
18 41 16 48 -2z"/>
<path d="M780 8845 c-14 -17 0 -21 17 -4 13 13 43 5 43 -11 0 -5 -10 -10 -22
-10 -33 0 -51 -14 -46 -36 2 -15 13 -19 46 -20 40 -2 42 -1 42 28 0 16 -5 38
-10 49 -13 23 -52 25 -70 4z m58 -47 c-6 -16 -36 -34 -44 -26 -3 4 -4 14 -1
23 7 17 51 21 45 3z"/>
<path d="M880 8808 c0 -59 18 -64 22 -5 2 34 7 42 23 42 16 0 21 -8 23 -42 2
-24 7 -43 12 -43 5 0 10 19 12 43 2 34 7 42 23 42 16 0 21 -8 23 -42 4 -49 22
-59 22 -12 0 58 -12 67 -90 66 l-70 0 0 -49z"/>
<path d="M1241 8813 c16 -37 18 -53 10 -70 -6 -13 -7 -23 -2 -23 5 0 23 30 40
66 34 74 35 74 22 74 -4 0 -15 -17 -23 -37 l-15 -38 -18 38 c-27 54 -38 46
-14 -10z"/>
<path d="M1340 8808 c0 -59 18 -64 22 -5 2 34 7 42 23 42 16 0 21 -8 23 -42 4
-54 22 -57 22 -4 0 46 -15 61 -58 58 -31 -2 -32 -3 -32 -49z"/>
<path d="M1458 8836 c-18 -42 3 -78 44 -74 17 2 33 9 36 16 3 11 0 12 -16 3
-30 -16 -52 -3 -52 29 0 34 32 49 57 28 14 -11 16 -11 11 2 -2 8 -19 16 -36
18 -26 3 -34 -1 -44 -22z"/>
<path d="M1565 8770 c4 -6 11 -8 16 -5 14 9 11 15 -7 15 -8 0 -12 -5 -9 -10z"/>
<path d="M2961 8348 c-1 -21 -7 -28 -28 -31 l-28 -4 28 -2 c22 -1 27 -6 28
-28 1 -28 1 -28 8 -3 4 14 17 27 31 31 l25 7 -27 1 c-21 1 -28 7 -31 29 l-4
27 -2 -27z"/>
<path d="M267 8354 c-11 -11 -8 -26 3 -19 6 3 10 -2 11 -12 0 -10 3 -13 5 -6
7 15 -10 46 -19 37z"/>
<path d="M321 8324 c0 -11 3 -14 6 -6 3 7 2 16 -1 19 -3 4 -6 -2 -5 -13z"/>
<path d="M361 8326 c-21 -25 -10 -61 18 -61 31 0 50 28 35 53 -15 23 -38 26
-53 8z m44 -26 c0 -18 -6 -26 -22 -28 -18 -3 -23 1 -23 21 0 28 9 39 30 35 9
-2 15 -14 15 -28z"/>
<path d="M577 8333 c-11 -10 -8 -33 4 -33 5 0 7 5 3 11 -3 6 0 15 7 20 8 5 9
9 3 9 -6 0 -14 -3 -17 -7z"/>
<path d="M686 8326 c10 -8 21 -12 24 -10 5 6 -21 24 -34 24 -6 0 -1 -6 10 -14z"/>
<path d="M760 8336 c0 -2 7 -7 16 -10 8 -3 12 -2 9 4 -6 10 -25 14 -25 6z"/>
<path d="M832 8328 c-7 -7 -12 -21 -11 -32 1 -18 2 -17 8 4 5 17 14 25 29 24
11 0 19 3 16 8 -7 12 -28 10 -42 -4z"/>
<path d="M948 8322 c9 -10 19 -17 21 -16 6 5 -20 34 -30 34 -5 0 -1 -8 9 -18z"/>
<path d="M997 8333 c-10 -10 -8 -33 3 -33 5 0 7 7 3 17 -5 13 -2 15 15 11 12
-4 20 -2 16 3 -6 11 -28 12 -37 2z"/>
<path d="M221 8314 c0 -11 3 -14 6 -6 3 7 2 16 -1 19 -3 4 -6 -2 -5 -13z"/>
<path d="M440 8295 c0 -19 2 -35 4 -35 2 0 6 16 8 35 2 19 0 35 -4 35 -4 0 -8
-16 -8 -35z"/>
<path d="M516 8315 c-11 -8 -18 -16 -15 -18 2 -1 15 -11 29 -22 l25 -20 -19
22 c-15 19 -16 25 -6 38 16 19 11 19 -14 0z"/>
<path d="M641 8278 c1 -32 4 -45 7 -33 5 13 16 20 31 20 13 0 26 7 28 15 4 12
3 12 -5 2 -16 -24 -47 -10 -45 21 1 15 -2 27 -8 27 -5 0 -9 -24 -8 -52z"/>
<path d="M251 8304 c0 -11 3 -14 6 -6 3 7 2 16 -1 19 -3 4 -6 -2 -5 -13z"/>
<path d="M784 8293 c1 -13 -6 -18 -21 -17 -13 0 -23 -3 -23 -8 0 -5 14 -7 30
-6 24 2 30 7 30 25 0 13 -4 23 -9 23 -5 0 -8 -8 -7 -17z"/>
<path d="M900 8299 c0 -5 5 -7 10 -4 6 3 10 8 10 11 0 2 -4 4 -10 4 -5 0 -10
-5 -10 -11z"/>
<path d="M290 8295 c0 -5 4 -16 9 -23 6 -11 10 -10 15 4 3 9 4 19 1 22 -3 3
-5 -1 -5 -9 0 -11 -2 -11 -10 1 -5 8 -10 11 -10 5z"/>
<path d="M607 8283 c5 -13 2 -15 -15 -11 -12 4 -22 2 -22 -4 0 -17 45 -4 48
15 2 9 -1 17 -7 17 -6 0 -8 -7 -4 -17z"/>
<path d="M230 8276 c0 -9 5 -16 10 -16 6 0 10 4 10 9 0 6 -4 13 -10 16 -5 3
-10 -1 -10 -9z"/>
<path d="M855 8270 c-16 -7 -17 -9 -3 -9 9 -1 20 4 23 9 7 11 7 11 -20 0z"/>
<path d="M918 8268 c6 -6 18 -8 28 -6 14 3 12 5 -9 10 -19 3 -25 2 -19 -4z"/>
<path d="M997 8268 c2 -5 13 -8 24 -8 10 0 19 3 19 8 0 4 -11 7 -24 7 -13 0
-22 -3 -19 -7z"/>
<path d="M4760 8050 c0 -91 3 -110 15 -110 10 0 15 10 15 33 l1 32 29 -32 c17
-19 40 -33 52 -33 20 0 18 4 -17 40 l-39 40 34 35 c30 31 31 35 14 35 -12 0
-29 -9 -39 -20 -28 -31 -35 -24 -35 35 0 42 -3 55 -15 55 -12 0 -15 -19 -15
-110z"/>
<path d="M5825 8151 c-42 -18 -60 -50 -60 -107 0 -44 4 -58 26 -80 57 -56 154
-34 179 42 16 47 0 107 -34 129 -30 20 -85 27 -111 16z m99 -53 c24 -34 20
-85 -9 -113 -30 -30 -54 -31 -89 -4 -20 16 -26 29 -26 61 0 54 22 78 71 78 28
0 42 -6 53 -22z"/>
<path d="M6557 8154 c-14 -15 -6 -34 14 -34 14 0 19 5 17 17 -3 18 -20 27 -31
17z"/>
<path d="M4222 8083 c10 -38 23 -85 29 -105 7 -27 15 -38 29 -38 15 0 24 16
42 77 l24 78 22 -78 c18 -62 26 -77 42 -77 14 0 22 11 29 38 6 20 19 67 30
105 19 66 19 67 1 67 -19 0 -29 -24 -46 -108 -4 -18 -10 -32 -14 -32 -4 0 -16
32 -26 70 -15 61 -21 70 -38 68 -16 -2 -25 -18 -40 -70 -10 -38 -22 -68 -26
-68 -4 0 -10 14 -14 32 -16 83 -27 108 -45 108 -18 0 -18 -2 1 -67z"/>
<path d="M4523 8090 c-44 -18 -58 -90 -24 -131 25 -31 83 -32 113 -1 61 60
-10 165 -89 132z m65 -42 c17 -17 15 -54 -4 -72 -22 -23 -41 -20 -60 9 -32 49
24 103 64 63z"/>
<path d="M4727 8093 c-4 -3 -23 -6 -42 -5 l-35 1 0 -74 c0 -68 2 -75 19 -75
17 0 20 8 23 53 2 43 7 54 26 62 12 5 22 18 22 27 0 19 -3 22 -13 11z"/>
<path d="M4912 8084 c-40 -28 -27 -62 33 -81 32 -10 41 -36 14 -41 -9 -2 -24
4 -33 13 -9 9 -24 15 -34 13 -15 -3 -13 -7 10 -31 45 -45 108 -31 108 24 0 26
-6 33 -40 46 -22 9 -40 20 -40 25 0 11 37 10 45 -2 9 -15 35 -12 35 4 0 17
-38 46 -60 46 -9 0 -26 -7 -38 -16z"/>
<path d="M5107 8093 c-4 -3 -23 -6 -42 -5 l-35 1 0 -109 c0 -103 1 -110 20
-110 17 0 20 7 20 39 0 39 0 39 29 28 52 -19 110 40 95 99 -10 39 -68 77 -87
57z m49 -57 c14 -56 -29 -94 -67 -60 -38 34 -18 84 33 84 21 0 29 -6 34 -24z"/>
<path d="M5260 8093 c-20 -7 -50 -34 -50 -45 0 -4 9 -8 20 -8 11 0 20 5 20 10
0 6 14 10 31 10 42 0 33 -24 -12 -28 -42 -4 -59 -18 -59 -47 0 -40 31 -57 89
-49 l51 7 0 54 c0 44 -5 58 -25 78 -24 25 -37 28 -65 18z m47 -100 c3 -7 -6
-17 -18 -23 -17 -10 -24 -9 -37 4 -14 14 -13 16 9 25 28 11 41 9 46 -6z"/>
<path d="M5390 8072 c-18 -19 -30 -41 -30 -57 0 -33 50 -85 82 -85 29 0 68 26
68 46 0 19 -19 18 -42 -3 -15 -13 -23 -14 -43 -5 -25 12 -32 41 -19 76 7 18
59 22 69 6 9 -15 35 -12 35 4 0 19 -22 35 -58 42 -26 5 -36 1 -62 -24z"/>
<path d="M5580 8093 c-35 -13 -50 -37 -50 -79 0 -34 5 -47 26 -63 15 -12 36
-21 48 -21 27 0 66 27 66 46 0 19 -19 18 -41 -2 -20 -18 -54 -12 -63 11 -4 12
6 15 54 15 57 0 60 1 60 24 0 46 -57 85 -100 69z m58 -50 c2 -9 -9 -13 -37
-13 -32 0 -39 3 -34 16 7 18 64 16 71 -3z"/>
<path d="M6180 8093 c-26 -9 -50 -47 -50 -79 0 -67 71 -104 123 -64 32 25 35
40 7 40 -11 0 -20 -4 -20 -9 0 -16 -40 -23 -55 -11 -27 22 -16 30 40 30 54 0
55 0 55 29 0 47 -53 81 -100 64z m64 -48 c4 -12 -3 -15 -34 -15 -38 0 -49 8
-33 23 12 13 61 7 67 -8z"/>
<path d="M6367 8094 c-4 -4 -20 -7 -37 -6 l-30 1 0 -75 c0 -59 3 -74 15 -74
11 0 15 11 15 43 0 48 14 72 46 79 18 5 24 -3 44 -58 18 -52 26 -64 44 -64 17
0 26 13 48 75 25 70 26 75 8 75 -13 0 -23 -14 -35 -50 -9 -28 -20 -48 -24 -45
-5 2 -14 25 -21 50 -7 25 -18 45 -25 45 -8 0 -20 2 -27 5 -8 3 -17 3 -21 -1z"/>
<path d="M6653 8090 c-27 -11 -43 -40 -43 -78 0 -39 27 -70 67 -78 26 -5 37
-1 60 22 24 24 25 29 11 32 -10 2 -25 -4 -34 -12 -21 -21 -37 -20 -59 4 -18
20 -17 20 43 20 59 0 62 1 62 24 0 50 -59 86 -107 66z m65 -47 c2 -9 -8 -13
-32 -13 -34 0 -44 8 -29 24 11 11 56 2 61 -11z"/>
<path d="M6008 8015 c22 -61 31 -75 48 -75 17 0 26 13 44 63 13 34 25 68 27
75 3 7 -3 12 -15 12 -15 0 -23 -11 -32 -45 -7 -25 -16 -48 -21 -50 -4 -3 -15
17 -24 45 -12 36 -22 50 -35 50 -18 0 -17 -5 8 -75z"/>
<path d="M6550 8015 c0 -68 2 -75 20 -75 18 0 20 7 20 75 0 68 -2 75 -20 75
-18 0 -20 -7 -20 -75z"/>
<path d="M6760 8085 c0 -4 9 -38 21 -76 26 -85 50 -94 69 -24 7 25 16 45 19
45 4 0 12 -20 19 -45 9 -33 17 -45 30 -45 14 0 23 14 35 58 9 31 19 65 22 75
5 13 2 17 -13 17 -15 0 -23 -11 -32 -47 l-13 -48 -14 48 c-12 40 -18 48 -36
45 -15 -2 -24 -13 -30 -40 -11 -48 -23 -48 -34 -1 -5 23 -15 39 -26 41 -9 2
-17 0 -17 -3z"/>
<path d="M16481 8056 c-44 -24 -50 -51 -51 -208 0 -93 4 -157 12 -173 25 -56
6 -55 777 -55 529 0 717 3 736 12 47 21 55 53 55 213 0 160 -8 192 -55 213
-40 18 -1441 16 -1474 -2z m1109 -144 c0 -13 -12 -22 -22 -16 -10 6 -1 24 13
24 5 0 9 -4 9 -8z m-900 -32 c0 -27 3 -30 30 -30 17 0 30 -4 30 -10 0 -5 -13
-10 -30 -10 -27 0 -30 -3 -30 -30 0 -16 -4 -30 -10 -30 -5 0 -10 14 -10 30 0
27 -3 30 -30 30 -16 0 -30 5 -30 10 0 6 14 10 30 10 27 0 30 3 30 30 0 17 5
30 10 30 6 0 10 -13 10 -30z m252 -13 l28 -42 0 43 c0 23 5 42 10 42 6 0 10
-27 10 -60 0 -33 -4 -60 -10 -60 -5 0 -22 19 -37 42 l-28 42 -3 -42 c-5 -64
-22 -50 -22 18 0 73 14 77 52 17z m888 23 c0 -5 7 -10 15 -10 8 0 15 -4 15
-10 0 -5 -7 -10 -15 -10 -21 0 -19 -46 3 -60 15 -9 14 -10 -8 -8 -20 3 -26 10
-31 43 -4 22 -4 45 -2 52 6 15 23 17 23 3z m-740 -29 c15 -29 13 -31 -25 -31
-19 0 -35 -4 -35 -9 0 -17 21 -23 36 -10 17 14 33 4 17 -12 -6 -6 -23 -9 -39
-7 -53 6 -42 88 12 88 13 0 28 -9 34 -19z m38 -8 l10 -28 7 28 c4 15 13 27 20
27 7 0 16 -12 20 -27 l7 -28 10 28 c10 29 33 38 24 10 -3 -10 -8 -30 -12 -45
-9 -38 -31 -35 -40 5 l-7 32 -10 -32 c-15 -51 -27 -43 -51 35 -11 32 10 27 22
-5z m240 15 c29 -29 7 -78 -35 -78 -16 0 -23 -6 -23 -20 0 -11 -4 -20 -10 -20
-6 0 -10 28 -10 65 l0 65 33 0 c18 0 38 -5 45 -12z m82 2 c0 -5 -7 -10 -15
-10 -10 0 -15 -11 -15 -35 0 -19 -4 -35 -10 -35 -5 0 -10 20 -10 45 0 41 2 45
25 45 14 0 25 -4 25 -10z m91 -11 c8 -16 8 -28 0 -46 -9 -19 -17 -24 -42 -21
-36 3 -51 30 -38 66 11 30 64 31 80 1z m49 -34 c0 -24 -3 -50 -6 -59 -7 -17
-34 -22 -34 -6 0 6 5 10 10 10 6 0 10 25 10 56 0 34 4 53 10 49 6 -3 10 -26
10 -50z m88 43 c23 -23 13 -38 -25 -38 -35 0 -36 -1 -20 -17 13 -13 20 -14 29
-5 18 18 33 15 18 -4 -16 -19 -59 -15 -73 8 -16 25 7 68 36 68 13 0 28 -5 35
-12z m102 -3 c14 -17 3 -20 -20 -5 -18 11 -40 -5 -40 -30 0 -21 29 -35 44 -20
16 16 30 12 16 -5 -26 -32 -80 -12 -80 30 0 42 54 62 80 30z"/>
<path d="M17043 7863 c-20 -7 -15 -23 7 -23 11 0 20 4 20 9 0 13 -12 19 -27
14z"/>
<path d="M17321 7857 c-16 -16 -14 -44 5 -51 22 -9 34 1 34 29 0 26 -22 39
-39 22z"/>
<path d="M17492 7861 c-17 -11 -12 -56 7 -56 8 0 19 8 25 17 13 22 -11 52 -32
39z"/>
<path d="M17630 7854 c-10 -12 -8 -14 14 -14 28 0 35 14 12 23 -8 3 -20 -1
-26 -9z"/>
<path d="M263 7990 c-51 -31 -63 -65 -63 -180 0 -169 31 -200 200 -200 169 0
200 31 200 200 0 169 -31 200 -200 200 -87 0 -111 -4 -137 -20z m152 -170 c0
-42 -4 -65 -12 -67 -10 -4 -13 14 -13 67 0 53 3 71 13 68 8 -3 12 -26 12 -68z"/>
<path d="M717 7983 c-11 -10 -8 -123 3 -123 6 0 10 28 10 65 0 65 -1 71 -13
58z"/>
<path d="M1620 7925 l0 -65 33 0 c38 0 57 15 57 45 0 27 -18 45 -47 45 -16 0
-23 6 -23 20 0 11 -4 20 -10 20 -6 0 -10 -28 -10 -65z m68 -19 c4 -21 -14 -37
-35 -29 -14 5 -18 35 -6 47 12 12 38 1 41 -18z"/>
<path d="M1400 7920 c0 -33 4 -60 10 -60 6 0 10 11 10 25 0 21 5 25 30 25 25
0 30 -4 30 -25 0 -14 5 -25 10 -25 6 0 10 27 10 60 0 58 -15 84 -22 38 -2 -17
-11 -24 -30 -26 -24 -3 -28 0 -28 22 0 14 -4 26 -10 26 -6 0 -10 -27 -10 -60z"/>
<path d="M1237 7957 c-2 -7 -2 -30 2 -52 5 -33 11 -40 31 -43 22 -2 23 -1 8 8
-22 14 -24 60 -3 60 8 0 15 5 15 10 0 6 -7 10 -15 10 -8 0 -15 5 -15 10 0 14
-17 12 -23 -3z"/>
<path d="M750 7906 c0 -52 17 -63 22 -14 2 22 9 34 21 36 14 3 17 -4 17 -32 0
-20 5 -36 11 -36 6 0 9 17 7 43 -3 41 -4 42 -40 45 l-38 3 0 -45z"/>
<path d="M850 7905 c0 -52 17 -61 22 -13 2 22 9 34 21 36 14 3 17 -4 17 -32 0
-25 4 -36 15 -36 18 0 20 41 5 71 -8 13 -21 19 -45 19 -35 0 -35 0 -35 -45z"/>
<path d="M962 7938 c-13 -13 -15 -37 -6 -62 7 -19 55 -21 72 -4 28 28 7 78
-33 78 -12 0 -26 -5 -33 -12z m56 -31 c4 -20 -25 -34 -40 -19 -15 15 -1 44 19
40 10 -2 19 -11 21 -21z"/>
<path d="M1058 7905 c9 -25 22 -45 28 -45 7 0 19 18 28 40 19 48 19 50 5 50
-5 0 -15 -14 -21 -31 l-11 -31 -13 31 c-21 49 -35 37 -16 -14z"/>
<path d="M1147 7943 c-15 -14 -5 -23 21 -18 l27 5 -27 -12 c-19 -8 -28 -19
-28 -35 0 -20 5 -23 40 -23 38 0 40 2 40 29 0 46 -10 61 -39 61 -15 0 -31 -3
-34 -7z m41 -54 c-2 -6 -8 -10 -13 -10 -5 0 -11 4 -13 10 -2 6 4 11 13 11 9 0
15 -5 13 -11z"/>
<path d="M1299 7929 c-17 -34 3 -69 40 -69 16 0 33 5 36 11 11 16 -3 23 -19
10 -8 -7 -20 -10 -26 -6 -20 12 -10 25 20 25 31 0 35 6 24 34 -9 24 -61 20
-75 -5z m56 -9 c-3 -5 -13 -10 -21 -10 -8 0 -14 5 -14 10 0 6 9 10 21 10 11 0
17 -4 14 -10z"/>
<path d="M1522 7908 c3 -42 4 -43 41 -46 l37 -3 0 45 c0 52 -17 63 -22 14 -2
-22 -9 -34 -20 -36 -15 -3 -18 4 -18 32 0 20 -5 36 -11 36 -6 0 -9 -17 -7 -42z"/>
<path d="M2857 7808 l33 -32 30 29 c16 16 28 31 25 33 -3 3 -16 -5 -30 -18
l-25 -23 -23 21 c-37 35 -45 26 -10 -10z"/>
<path d="M717 7763 c-4 -3 -6 -29 -6 -57 1 -28 4 -39 6 -24 3 20 11 28 31 31
l27 4 -27 2 c-36 1 -39 31 -3 31 14 0 25 5 25 10 0 11 -43 14 -53 3z"/>
<path d="M4220 7690 c0 -40 2 -71 6 -68 7 8 7 128 0 136 -3 3 -6 -28 -6 -68z"/>
<path d="M4309 7728 c-2 -18 -1 -51 2 -73 5 -32 6 -25 8 33 1 75 -4 96 -10 40z"/>
<path d="M5983 7743 c-4 -10 -11 -21 -17 -25 -7 -5 -7 -8 2 -8 7 0 13 -17 14
-47 l1 -48 4 45 c3 24 10 48 16 52 9 6 9 8 0 8 -7 0 -13 6 -13 14 0 8 6 17 13
19 9 4 9 6 -1 6 -7 1 -16 -7 -19 -16z"/>
<path d="M6360 7690 c0 -40 2 -71 6 -68 7 8 7 128 0 136 -3 3 -6 -28 -6 -68z"/>
<path d="M7023 7690 c0 -41 2 -62 4 -46 l5 28 31 -28 c27 -25 29 -25 9 -3 -27
31 -27 36 -5 63 14 16 12 16 -9 -3 l-27 -23 -4 43 c-2 24 -4 10 -4 -31z"/>
<path d="M7683 7710 c0 -30 2 -43 4 -27 2 15 2 39 0 55 -2 15 -4 2 -4 -28z"/>
<path d="M791 7695 c1 -27 3 -32 6 -15 3 14 11 32 19 40 11 14 11 16 -6 16
-17 0 -20 -7 -19 -41z"/>
<path d="M848 7715 c-8 -19 -8 -28 2 -40 14 -16 46 -20 54 -6 3 4 -6 6 -19 3
-18 -3 -25 0 -25 12 0 10 9 16 25 16 28 0 34 24 9 34 -26 10 -34 7 -46 -19z
m47 5 c3 -5 -3 -10 -15 -10 -12 0 -18 5 -15 10 3 6 10 10 15 10 5 0 12 -4 15
-10z"/>
<path d="M940 7726 c-27 -33 12 -88 41 -59 6 6 1 9 -12 9 -12 -1 -24 5 -26 12
-3 8 6 12 26 12 33 0 39 8 19 28 -16 16 -33 15 -48 -2z m45 -6 c4 -6 -5 -10
-20 -10 -15 0 -24 4 -20 10 3 6 12 10 20 10 8 0 17 -4 20 -10z"/>
<path d="M6289 7730 c-5 -64 10 -110 35 -110 6 0 3 5 -6 11 -12 6 -18 22 -18
44 0 26 4 35 18 36 13 0 14 2 2 6 -8 3 -18 11 -22 17 -5 7 -8 6 -9 -4z"/>
<path d="M4362 7708 c-7 -7 -12 -24 -12 -38 0 -32 17 -50 45 -49 17 1 16 2 -5
8 -14 4 -26 15 -28 24 -3 14 4 17 37 17 43 0 48 5 30 30 -9 13 -10 12 -5 -2 4
-15 -1 -18 -30 -18 -41 0 -43 20 -3 31 21 6 21 7 4 8 -12 1 -26 -4 -33 -11z"/>
<path d="M4473 7670 c0 -30 2 -43 4 -27 2 15 2 39 0 55 -2 15 -4 2 -4 -28z"/>
<path d="M4549 7703 c-13 -15 -12 -15 7 -3 22 14 54 8 54 -10 0 -5 -18 -10
-40 -10 -22 0 -40 -3 -40 -8 0 -4 20 -6 45 -4 45 4 56 17 33 40 -17 17 -43 15
-59 -5z"/>
<path d="M4680 7705 c-14 -17 -5 -35 18 -35 13 0 13 2 -4 14 -17 13 -18 15 -2
21 9 4 22 3 29 -1 8 -4 9 -3 5 4 -10 16 -31 15 -46 -3z"/>
<path d="M4868 7713 c12 -2 22 -11 22 -18 0 -7 -10 -16 -22 -18 -23 -4 -23 -4
1 -6 19 -1 22 -5 18 -22 -4 -15 -3 -19 4 -12 6 6 9 26 7 44 -2 28 -7 34 -28
36 -22 1 -22 1 -2 -4z"/>
<path d="M4988 7710 c17 -8 22 -18 24 -52 l1 -43 4 38 c5 41 -10 67 -36 66
-11 0 -9 -3 7 -9z"/>
<path d="M5112 7708 c-7 -7 -11 -23 -11 -37 1 -24 2 -24 8 4 5 26 11 30 38 30
17 0 29 3 26 7 -7 12 -48 9 -61 -4z"/>
<path d="M5329 7703 c-13 -15 -12 -15 7 -3 22 14 54 8 54 -10 0 -5 -18 -10
-40 -10 -22 0 -40 -3 -40 -8 0 -4 20 -6 45 -4 45 4 56 17 33 40 -17 17 -43 15
-59 -5z"/>
<path d="M5432 7670 c1 -42 2 -46 5 -18 3 24 12 43 26 53 12 8 16 15 10 15 -7
0 -15 -5 -19 -11 -4 -8 -9 -7 -15 2 -5 9 -8 -7 -7 -41z"/>
<path d="M5500 7715 c0 -5 5 -17 10 -25 5 -8 10 -10 10 -5 0 6 -5 17 -10 25
-5 8 -10 11 -10 5z"/>
<path d="M5613 7670 c0 -30 2 -43 4 -27 2 15 2 39 0 55 -2 15 -4 2 -4 -28z"/>
<path d="M5669 7703 c-13 -15 -12 -15 7 -3 22 14 54 8 54 -10 0 -5 -18 -10
-40 -10 -22 0 -40 -3 -40 -8 0 -4 20 -6 45 -4 45 4 56 17 33 40 -17 17 -43 15
-59 -5z"/>
<path d="M5816 7704 c-4 -9 -4 -19 -1 -22 3 -3 5 0 5 7 0 7 5 9 10 6 6 -3 10
-2 10 4 0 18 -18 21 -24 5z"/>
<path d="M5881 7704 c0 -11 3 -14 6 -6 3 7 2 16 -1 19 -3 4 -6 -2 -5 -13z"/>
<path d="M6049 7703 c-11 -15 -11 -16 1 -5 20 17 47 15 59 -5 6 -10 11 -13 11
-7 1 32 -50 45 -71 17z"/>
<path d="M6407 7714 c18 -4 23 -14 26 -52 l4 -47 -1 50 c-1 46 -3 50 -26 52
-21 1 -21 1 -3 -3z"/>
<path d="M6483 7670 c0 -30 2 -43 4 -27 2 15 2 39 0 55 -2 15 -4 2 -4 -28z"/>
<path d="M6530 7705 c-14 -17 -5 -35 18 -35 13 0 13 2 -4 14 -17 13 -18 15 -2
21 9 4 22 3 29 -1 8 -4 9 -3 5 4 -10 16 -31 15 -46 -3z"/>
<path d="M6726 7704 c-4 -9 -4 -19 -1 -22 3 -3 5 0 5 7 0 7 5 9 10 6 6 -3 10
-2 10 4 0 18 -18 21 -24 5z"/>
<path d="M6791 7704 c0 -11 3 -14 6 -6 3 7 2 16 -1 19 -3 4 -6 -2 -5 -13z"/>
<path d="M6837 7702 c-22 -24 -21 -45 1 -65 35 -32 72 -14 72 33 0 48 -42 66
-73 32z m58 -32 c0 -38 -24 -52 -50 -30 -31 25 -9 73 30 68 16 -2 20 -11 20
-38z"/>
<path d="M6942 7670 c1 -42 2 -46 5 -18 3 24 12 43 26 53 12 8 16 15 10 15 -7
0 -15 -5 -19 -11 -4 -8 -9 -7 -15 2 -5 9 -8 -7 -7 -41z"/>
<path d="M7120 7705 c-14 -17 -5 -35 18 -35 13 0 13 2 -4 14 -17 13 -18 15 -2
21 9 4 22 3 29 -1 8 -4 9 -3 5 4 -10 16 -31 15 -46 -3z"/>
<path d="M7212 7650 c1 -41 3 -60 5 -42 4 27 7 31 19 22 15 -14 64 -5 64 10 0
6 -9 5 -20 -2 -26 -17 -55 0 -55 32 0 32 29 49 55 32 11 -7 20 -8 20 -2 0 15
-49 24 -64 11 -11 -9 -15 -9 -19 1 -3 7 -5 -21 -5 -62z"/>
<path d="M7378 7713 c12 -2 22 -11 22 -18 0 -7 -10 -16 -22 -18 -23 -4 -23 -4
1 -6 19 -1 22 -5 18 -22 -4 -15 -3 -19 4 -12 6 6 9 26 7 44 -2 28 -7 34 -28
36 -22 1 -22 1 -2 -4z"/>
<path d="M7459 7703 c-13 -15 -12 -15 9 -2 19 12 25 12 45 0 20 -13 21 -13 8
2 -7 10 -21 17 -31 17 -10 0 -24 -7 -31 -17z"/>
<path d="M7572 7708 c-7 -7 -12 -24 -12 -38 0 -47 43 -67 71 -33 13 15 12 15
-7 3 -25 -15 -54 -7 -54 14 0 10 13 16 38 19 l37 4 -37 1 c-21 1 -38 7 -38 12
0 17 31 24 51 11 11 -6 19 -7 19 -2 0 20 -50 27 -68 9z"/>
<path d="M4940 7695 c0 -8 2 -15 4 -15 2 0 6 7 10 15 3 8 1 15 -4 15 -6 0 -10
-7 -10 -15z"/>
<path d="M5182 7670 c0 -14 2 -19 5 -12 2 6 2 18 0 25 -3 6 -5 1 -5 -13z"/>
<path d="M5265 7659 c-7 -22 -8 -22 -21 -4 -8 10 -14 14 -14 9 0 -6 6 -18 13
-28 12 -16 14 -16 25 9 7 15 11 30 8 32 -2 2 -7 -6 -11 -18z"/>
<path d="M7440 7675 c0 -20 31 -55 49 -55 10 0 25 8 32 18 11 14 11 15 -1 5
-23 -21 -48 -15 -64 15 -8 15 -15 22 -16 17z"/>
<path d="M4727 7650 c4 -15 0 -20 -14 -20 -10 0 -24 5 -31 12 -9 9 -12 9 -12
0 0 -14 44 -27 59 -17 13 8 15 45 2 45 -5 0 -7 -9 -4 -20z"/>
<path d="M6577 7650 c4 -15 0 -20 -14 -20 -10 0 -24 5 -31 12 -9 9 -12 9 -12
0 0 -14 44 -27 59 -17 13 8 15 45 2 45 -5 0 -7 -9 -4 -20z"/>
<path d="M7167 7650 c4 -15 0 -20 -14 -20 -10 0 -24 5 -31 12 -9 9 -12 9 -12
0 0 -14 44 -27 59 -17 13 8 15 45 2 45 -5 0 -7 -9 -4 -20z"/>
<path d="M5543 7644 c-15 -16 -16 -24 -4 -24 8 0 24 30 19 35 -2 2 -9 -3 -15
-11z"/>
<path d="M5780 7648 c0 -9 5 -20 10 -23 13 -8 13 5 0 25 -8 13 -10 13 -10 -2z"/>
<path d="M6107 7645 c-8 -18 -38 -20 -57 -2 -12 10 -12 9 -1 -5 7 -10 21 -18
31 -18 18 0 47 27 38 36 -3 3 -8 -2 -11 -11z"/>
<path d="M6690 7648 c0 -9 5 -20 10 -23 13 -8 13 5 0 25 -8 13 -10 13 -10 -2z"/>
<path d="M4549 7637 c7 -10 21 -17 31 -17 10 0 24 7 31 17 13 15 12 15 -8 2
-20 -12 -26 -12 -45 0 -21 13 -22 13 -9 -2z"/>
<path d="M4832 7634 c9 -9 21 -15 27 -13 6 2 -2 10 -17 17 -25 11 -25 11 -10
-4z"/>
<path d="M5329 7637 c7 -10 21 -17 31 -17 10 0 24 7 31 17 13 15 12 15 -8 2
-20 -12 -26 -12 -45 0 -21 13 -22 13 -9 -2z"/>
<path d="M5669 7637 c7 -10 21 -17 31 -17 10 0 24 7 31 17 13 15 12 15 -8 2
-20 -12 -26 -12 -45 0 -21 13 -22 13 -9 -2z"/>
<path d="M5856 7641 c-4 -7 -5 -15 -2 -18 9 -9 19 4 14 18 -4 11 -6 11 -12 0z"/>
<path d="M6766 7641 c-4 -7 -5 -15 -2 -18 9 -9 19 4 14 18 -4 11 -6 11 -12 0z"/>
<path d="M7342 7634 c9 -9 21 -15 27 -13 6 2 -2 10 -17 17 -25 11 -25 11 -10
-4z"/>
<path d="M5138 7623 c7 -3 16 -2 19 1 4 3 -2 6 -13 5 -11 0 -14 -3 -6 -6z"/>
<path d="M943 7220 c0 -41 1 -66 4 -55 2 11 6 30 9 43 3 17 10 22 27 20 17 -2
23 -12 28 -43 l6 -40 2 41 c1 50 -17 71 -48 55 -18 -10 -20 -8 -24 21 -2 18
-4 -1 -4 -42z"/>
<path d="M1052 7224 l-2 -71 36 1 c43 1 60 21 51 58 -8 31 -31 42 -57 28 -16
-9 -19 -6 -23 22 -2 18 -5 1 -5 -38z m73 -14 c7 -23 -10 -50 -30 -50 -20 0
-37 27 -30 50 4 13 15 20 30 20 15 0 26 -7 30 -20z"/>
<path d="M1520 7264 c0 -22 -3 -25 -22 -21 -44 12 -79 -53 -44 -82 7 -6 28
-10 45 -9 l31 2 0 68 c0 37 -2 68 -5 68 -3 0 -5 -12 -5 -26z m-5 -63 c0 -34
-32 -52 -50 -27 -19 25 -2 58 28 54 16 -2 22 -10 22 -27z"/>
<path d="M320 7234 c0 -45 0 -45 33 -42 30 3 32 6 35 46 l3 42 -35 0 c-36 0
-36 0 -36 -46z m60 6 c0 -25 -4 -30 -25 -30 -21 0 -25 5 -25 30 0 25 4 30 25
30 21 0 25 -5 25 -30z"/>
<path d="M410 7255 c0 -22 4 -25 35 -25 31 0 35 3 35 25 0 22 -4 25 -35 25
-31 0 -35 -3 -35 -25z m60 0 c0 -9 -9 -15 -25 -15 -16 0 -25 6 -25 15 0 9 9
15 25 15 16 0 25 -6 25 -15z"/>
<path d="M610 7215 l0 -65 35 0 c43 0 75 29 75 68 0 38 -28 62 -73 62 l-37 0
0 -65z m78 43 c20 -20 15 -76 -7 -88 -42 -22 -51 -14 -51 45 0 51 2 55 23 55
13 0 28 -5 35 -12z"/>
<path d="M763 7243 c-7 -2 -13 -9 -13 -14 0 -4 7 -6 15 -3 8 4 23 3 33 -1 13
-5 10 -9 -18 -18 -24 -9 -35 -18 -35 -32 0 -16 7 -20 38 -21 36 -1 37 -1 37
37 0 28 -5 41 -19 49 -11 5 -21 10 -23 9 -2 0 -9 -3 -15 -6z m37 -68 c-7 -8
-19 -15 -26 -15 -8 0 -14 7 -14 15 0 10 10 15 26 15 22 0 25 -2 14 -15z"/>
<path d="M854 7235 c-19 -15 -19 -15 0 -30 11 -8 26 -15 33 -15 18 0 16 -19
-3 -27 -9 -3 -20 0 -24 8 -5 7 -12 10 -16 6 -13 -12 12 -29 37 -25 35 5 38 44
5 52 -15 3 -26 11 -26 17 0 7 10 9 27 4 23 -5 25 -4 14 9 -17 20 -22 20 -47 1z"/>
<path d="M1182 7234 c-39 -27 -23 -84 23 -84 43 0 61 53 29 84 -19 20 -24 20
-52 0z m53 -24 c7 -23 -10 -50 -31 -50 -20 0 -34 31 -23 52 13 24 46 23 54 -2z"/>
<path d="M1294 7235 c-18 -15 -18 -15 7 -9 15 3 30 1 33 -5 4 -7 -1 -11 -13
-11 -26 0 -52 -27 -44 -46 3 -9 17 -14 39 -12 32 2 34 4 34 38 0 32 -14 60
-30 60 -3 0 -15 -7 -26 -15z m34 -61 c-9 -9 -21 -13 -27 -10 -20 13 -11 26 16
26 25 0 26 -1 11 -16z"/>
<path d="M1381 7190 c1 -25 3 -36 6 -25 2 11 6 30 8 42 3 12 13 24 23 26 9 3
5 4 -10 4 -26 -1 -28 -4 -27 -47z"/>
<path d="M417 7203 c-4 -3 -7 -24 -7 -45 0 -37 1 -38 35 -38 35 0 35 0 35 45
0 43 -1 45 -28 45 -16 0 -32 -3 -35 -7z m53 -43 c0 -25 -4 -30 -25 -30 -21 0
-25 5 -25 30 0 25 4 30 25 30 21 0 25 -5 25 -30z"/>
<path d="M320 7145 c0 -22 4 -25 35 -25 31 0 35 3 35 25 0 22 -4 25 -35 25
-31 0 -35 -3 -35 -25z m60 0 c0 -9 -9 -15 -25 -15 -16 0 -25 6 -25 15 0 9 9
15 25 15 16 0 25 -6 25 -15z"/>
<path d="M354 6828 c-50 -24 -57 -96 -15 -139 41 -41 90 -40 125 2 26 30 35
79 16 79 -5 0 -10 -11 -10 -25 0 -36 -33 -65 -74 -65 -40 0 -66 28 -66 70 0
47 26 70 78 70 34 0 43 3 32 10 -19 12 -59 12 -86 -2z"/>
<path d="M627 6823 c19 -4 23 -12 26 -66 l3 -62 2 62 c2 55 4 62 25 66 12 2 0
4 -28 4 -27 0 -40 -2 -28 -4z"/>
<path d="M900 6765 c0 -37 4 -65 10 -65 6 0 10 10 10 22 l0 21 23 -21 c32 -30
46 -28 17 3 -23 24 -23 25 -5 45 22 24 9 27 -17 3 -17 -15 -18 -14 -18 20 0
21 -4 37 -10 37 -6 0 -10 -28 -10 -65z"/>
<path d="M438 6783 c-31 -31 -39 -35 -52 -24 -9 8 -16 9 -16 3 0 -5 7 -15 16
-23 13 -11 22 -6 62 34 26 26 42 47 37 47 -6 0 -27 -17 -47 -37z"/>
<path d="M724 6785 c-18 -15 -18 -15 7 -9 15 3 30 1 33 -5 4 -6 -1 -11 -11
-11 -30 0 -55 -23 -47 -43 4 -13 16 -17 40 -15 33 2 34 3 34 44 0 29 -5 44
-16 48 -20 8 -17 8 -40 -9z m34 -61 c-9 -9 -21 -13 -27 -10 -20 13 -11 26 16
26 25 0 26 -1 11 -16z"/>
<path d="M823 6793 c-23 -9 -15 -42 12 -49 14 -3 25 -12 25 -20 0 -16 -26 -19
-35 -4 -3 6 -11 10 -17 10 -6 0 -6 -6 2 -16 17 -20 64 -14 68 9 3 12 -6 21
-27 28 -37 13 -42 33 -6 27 28 -6 34 6 9 16 -9 3 -16 6 -17 5 -1 0 -8 -3 -14
-6z"/>
<path d="M1000 6785 c-15 -18 -6 -33 28 -46 19 -8 23 -12 13 -22 -9 -9 -16 -9
-32 2 -18 10 -20 10 -17 -1 3 -7 18 -13 34 -13 40 0 48 39 10 49 -15 3 -26 11
-26 17 0 7 10 9 27 4 23 -5 25 -4 14 9 -17 20 -35 20 -51 1z"/>
<path d="M8197 6543 c-3 -5 -8 -23 -12 -40 -5 -23 -12 -33 -26 -33 -10 0 -19
-4 -19 -10 0 -12 20 -13 35 -2 6 4 15 18 21 32 10 24 12 22 28 -35 9 -33 19
-66 21 -73 8 -21 22 -5 29 33 5 26 12 35 26 35 11 0 20 5 20 10 0 12 -20 13
-35 2 -6 -4 -15 -18 -21 -32 -11 -24 -12 -22 -28 32 -9 31 -16 61 -16 66 0 14
-17 25 -23 15z"/>
<path d="M12877 6543 c-3 -5 -8 -23 -12 -40 -5 -23 -12 -33 -26 -33 -10 0 -19
-4 -19 -10 0 -12 20 -13 35 -2 6 4 15 18 21 32 10 24 12 22 28 -35 9 -33 19
-66 21 -73 8 -21 22 -5 29 33 5 26 12 35 26 35 11 0 20 5 20 10 0 12 -20 13
-35 2 -6 -4 -15 -18 -21 -32 -11 -24 -12 -22 -28 32 -9 31 -16 61 -16 66 0 14
-17 25 -23 15z"/>
<path d="M17567 6543 c-3 -5 -8 -23 -12 -40 -5 -23 -12 -33 -26 -33 -10 0 -19
-4 -19 -10 0 -12 20 -13 35 -2 6 4 15 18 21 32 10 24 12 22 28 -35 9 -33 19
-66 21 -73 8 -21 22 -5 29 33 5 26 12 35 26 35 11 0 20 5 20 10 0 12 -20 13
-35 2 -6 -4 -15 -18 -21 -32 -11 -24 -12 -22 -28 32 -9 31 -16 61 -16 66 0 14
-17 25 -23 15z"/>
<path d="M4873 6465 c0 -38 2 -53 4 -32 2 20 2 52 0 70 -2 17 -4 1 -4 -38z"/>
<path d="M10223 6465 c-1 -38 2 -59 6 -47 l6 24 19 -21 c11 -12 24 -21 29 -21
6 0 0 11 -13 25 -23 25 -23 25 -4 47 19 23 19 23 -2 6 -29 -25 -32 -23 -37 20
-2 20 -4 6 -4 -33z"/>
<path d="M14393 6465 c0 -38 2 -53 4 -32 2 20 2 52 0 70 -2 17 -4 1 -4 -38z"/>
<path d="M15123 6465 c0 -38 2 -59 4 -47 l5 24 26 -24 26 -23 -18 28 c-17 27
-17 30 0 48 9 10 12 19 7 19 -6 0 -17 -7 -24 -17 -13 -15 -15 -12 -20 23 -5
29 -6 22 -6 -31z"/>
<path d="M4533 6513 c13 -4 17 -15 17 -59 0 -30 5 -54 10 -54 6 0 10 24 10 54
0 44 4 55 18 59 9 3 -3 5 -28 5 -25 0 -37 -2 -27 -5z"/>
<path d="M4967 6513 c19 -4 23 -12 26 -61 l3 -57 2 57 c2 50 5 57 25 61 12 2
0 4 -28 4 -27 0 -40 -2 -28 -4z"/>
<path d="M5220 6460 c0 -33 4 -60 10 -60 6 0 10 10 11 23 l0 22 16 -22 c8 -13
20 -23 26 -23 5 0 3 8 -6 18 -21 23 -21 36 -2 52 9 7 13 15 10 18 -3 3 -14 -3
-25 -13 -20 -18 -20 -17 -20 13 0 18 -4 32 -10 32 -6 0 -10 -27 -10 -60z"/>
<path d="M9220 6501 c-34 -65 18 -124 81 -91 22 12 27 78 7 98 -20 20 -76 15
-88 -7z m78 -3 c17 -17 15 -63 -3 -78 -22 -18 -64 -4 -71 24 -12 50 40 88 74
54z"/>
<path d="M9660 6501 c0 -14 -5 -18 -20 -14 -26 7 -50 -13 -50 -42 0 -30 19
-44 58 -43 l32 1 0 59 c0 32 -4 58 -10 58 -5 0 -10 -9 -10 -19z m-5 -56 c0
-23 -5 -30 -19 -30 -28 0 -43 29 -26 50 21 25 45 14 45 -20z"/>
<path d="M9957 6513 c19 -4 23 -12 26 -61 l3 -57 2 57 c2 50 5 57 25 61 12 2
0 4 -28 4 -27 0 -40 -2 -28 -4z"/>
<path d="M13906 6498 c-9 -12 -16 -29 -16 -38 0 -9 7 -26 16 -38 17 -24 62
-30 82 -10 19 19 14 33 -6 15 -37 -33 -76 -11 -70 39 4 36 31 53 58 36 27 -16
35 -15 20 3 -19 23 -66 19 -84 -7z"/>
<path d="M14760 6501 c0 -14 -5 -18 -20 -14 -26 7 -50 -13 -50 -42 0 -30 19
-44 58 -43 l32 1 0 59 c0 32 -4 58 -10 58 -5 0 -10 -9 -10 -19z m-5 -56 c0
-23 -5 -30 -19 -30 -28 0 -43 29 -26 50 21 25 45 14 45 -20z"/>
<path d="M14857 6513 c19 -4 23 -12 26 -61 l3 -57 2 57 c2 50 5 57 25 61 12 2
0 4 -28 4 -27 0 -40 -2 -28 -4z"/>
<path d="M4712 6494 c-7 -8 -8 -15 -2 -19 6 -3 10 -22 10 -41 0 -26 4 -34 18
-33 10 0 12 3 5 6 -15 5 -18 70 -4 75 5 2 4 8 -3 14 -8 8 -15 7 -24 -2z"/>
<path d="M14532 6494 c-7 -8 -8 -15 -2 -19 6 -3 10 -22 10 -41 0 -26 4 -34 18
-33 10 0 12 3 5 6 -15 5 -18 70 -4 75 5 2 4 8 -3 14 -8 8 -15 7 -24 -2z"/>
<path d="M4616 6475 c-19 -19 -20 -29 -6 -56 13 -23 53 -25 70 -3 10 11 11 23
4 42 -11 32 -44 40 -68 17z m49 -30 c0 -23 -4 -30 -20 -30 -21 0 -31 25 -21
51 11 28 41 12 41 -21z"/>
<path d="M4787 6483 c-14 -13 -7 -25 8 -13 8 6 19 9 25 5 18 -11 11 -25 -14
-25 -26 0 -39 -19 -27 -39 4 -6 22 -10 39 -9 29 2 32 6 32 33 0 17 -5 36 -12
43 -13 13 -41 16 -51 5z m41 -55 c-7 -19 -38 -22 -38 -4 0 10 9 16 21 16 12 0
19 -5 17 -12z"/>
<path d="M5049 6473 c-13 -16 -12 -17 3 -4 18 14 48 9 48 -8 0 -5 -12 -11 -27
-13 -20 -2 -28 -9 -28 -23 0 -16 7 -20 33 -21 33 -1 33 0 30 40 -2 33 -7 42
-24 44 -11 2 -27 -5 -35 -15z m51 -42 c0 -6 -5 -13 -10 -16 -15 -9 -43 3 -35
15 8 13 45 13 45 1z"/>
<path d="M5147 6484 c-15 -15 -6 -35 19 -44 14 -6 22 -14 19 -20 -8 -13 -35
-13 -35 0 0 6 -5 10 -11 10 -8 0 -7 -5 1 -15 17 -20 54 -15 58 7 2 12 -6 21
-22 28 -27 10 -36 30 -13 30 7 0 19 -6 26 -12 11 -11 13 -10 9 2 -5 16 -39 25
-51 14z"/>
<path d="M9340 6485 c0 -13 33 -85 40 -85 9 0 42 82 35 88 -3 3 -10 -9 -16
-26 -14 -40 -24 -40 -38 -2 -8 26 -21 40 -21 25z"/>
<path d="M9442 6478 c-7 -7 -12 -21 -12 -33 0 -42 45 -60 71 -28 13 15 12 15
-8 2 -20 -12 -25 -11 -40 4 -16 16 -15 17 20 17 24 0 37 5 37 13 0 18 -21 37
-40 37 -9 0 -21 -5 -28 -12z m42 -4 c27 -10 18 -24 -15 -24 -27 0 -30 2 -19
15 14 17 13 17 34 9z"/>
<path d="M9530 6443 c0 -24 5 -43 10 -43 6 0 10 16 10 35 0 24 5 35 15 35 8 0
15 4 15 9 0 5 -11 8 -25 7 -23 -1 -25 -5 -25 -43z"/>
<path d="M9701 6460 c-1 -48 10 -61 47 -58 31 2 32 4 32 46 0 26 -4 41 -10 37
-5 -3 -10 -20 -10 -36 0 -17 -6 -32 -15 -36 -21 -7 -27 0 -35 44 l-8 38 -1
-35z"/>
<path d="M9812 6478 c-7 -7 -12 -21 -12 -33 0 -42 45 -60 71 -28 13 15 12 15
-8 2 -20 -12 -25 -11 -40 4 -16 16 -15 17 20 17 24 0 37 5 37 13 0 18 -21 37
-40 37 -9 0 -21 -5 -28 -12z m42 -4 c27 -10 18 -24 -15 -24 -27 0 -30 2 -19
15 14 17 13 17 34 9z"/>
<path d="M10047 6483 c-14 -13 -7 -25 8 -13 8 6 19 9 25 5 18 -11 11 -25 -14
-25 -26 0 -39 -19 -27 -39 4 -6 22 -10 39 -9 29 2 32 6 32 33 0 17 -5 36 -12
43 -13 13 -41 16 -51 5z m41 -55 c-7 -19 -38 -22 -38 -4 0 10 9 16 21 16 12 0
19 -5 17 -12z"/>
<path d="M10134 6476 c-8 -21 3 -36 27 -36 10 0 19 -7 19 -15 0 -18 -21 -20
-39 -2 -11 10 -13 9 -9 -3 7 -22 62 -20 66 3 2 9 -4 19 -12 22 -9 3 -24 7 -33
10 -12 4 -13 9 -5 17 8 8 16 8 28 -3 15 -12 17 -12 12 1 -6 21 -47 25 -54 6z"/>
<path d="M14032 6478 c-7 -7 -12 -22 -12 -34 0 -51 72 -61 78 -11 6 47 -36 75
-66 45z m46 -7 c20 -12 11 -56 -12 -56 -27 0 -43 29 -27 49 15 18 21 19 39 7z"/>
<path d="M14132 6441 c1 -45 1 -45 5 -8 7 66 51 60 54 -8 2 -26 3 -24 8 10 8
53 35 55 39 3 4 -48 22 -50 22 -4 0 43 -11 51 -77 52 l-53 0 2 -45z"/>
<path d="M14281 6420 c1 -44 3 -57 8 -40 5 19 13 24 30 22 29 -4 51 14 51 43
0 30 -20 45 -58 42 l-32 -2 1 -65z m68 41 c13 -24 -9 -57 -33 -48 -16 6 -22
47 -9 60 12 13 32 7 42 -12z"/>
<path d="M14442 6478 c-27 -27 -7 -78 29 -78 10 0 20 4 23 9 3 4 -5 6 -18 4
-15 -3 -25 1 -29 11 -5 13 1 16 28 16 22 0 35 5 35 13 0 18 -21 37 -40 37 -9
0 -21 -5 -28 -12z m48 -13 c11 -13 8 -15 -20 -15 -28 0 -31 2 -20 15 7 8 16
15 20 15 4 0 13 -7 20 -15z"/>
<path d="M14602 6478 c-7 -7 -12 -21 -12 -33 0 -42 45 -60 71 -28 13 15 12 15
-8 2 -20 -12 -25 -11 -40 4 -16 16 -15 17 20 17 24 0 37 5 37 13 0 18 -21 37
-40 37 -9 0 -21 -5 -28 -12z m42 -4 c27 -10 18 -24 -15 -24 -27 0 -30 2 -19
15 14 17 13 17 34 9z"/>
<path d="M14940 6475 c-14 -17 0 -21 17 -4 6 6 16 8 22 5 19 -12 12 -25 -16
-28 -20 -2 -28 -9 -28 -23 0 -16 7 -20 33 -21 33 -1 33 0 30 40 -2 33 -7 42
-24 44 -11 2 -27 -4 -34 -13z m50 -44 c0 -6 -5 -13 -10 -16 -15 -9 -43 3 -35
15 8 13 45 13 45 1z"/>
<path d="M15037 6484 c-14 -15 -6 -35 18 -44 14 -5 25 -14 25 -20 0 -13 -27
-13 -35 0 -3 6 -11 10 -17 10 -6 0 -6 -6 2 -15 17 -20 54 -15 58 7 2 12 -6 21
-24 28 -20 8 -24 14 -16 22 8 8 16 7 28 -3 15 -12 17 -12 12 1 -5 16 -39 25
-51 14z"/>
<path d="M1052 6324 l-2 -71 36 1 c43 1 60 21 51 58 -8 31 -31 42 -57 28 -16
-9 -19 -6 -23 22 -2 18 -5 1 -5 -38z m73 -14 c7 -23 -10 -50 -30 -50 -20 0
-37 27 -30 50 4 13 15 20 30 20 15 0 26 -7 30 -20z"/>
<path d="M340 6361 c-19 -36 14 -70 53 -55 39 14 24 74 -18 74 -14 0 -29 -8
-35 -19z m58 -20 c-2 -9 -11 -17 -21 -19 -21 -4 -35 27 -17 38 19 12 42 0 38
-19z"/>
<path d="M430 6371 c0 -5 6 -11 13 -14 10 -3 10 -9 0 -26 -17 -27 -16 -32 1
-25 21 8 28 32 16 55 -11 20 -30 26 -30 10z"/>
<path d="M610 6315 c0 -37 4 -65 10 -65 6 0 10 21 10 48 l1 47 22 -37 c12 -21
25 -38 28 -38 3 0 14 17 24 38 l19 37 7 -50 c6 -50 6 -50 7 18 1 37 -2 67 -6
67 -5 0 -17 -18 -27 -40 -10 -22 -21 -40 -25 -40 -4 0 -15 18 -25 40 -28 62
-45 52 -45 -25z"/>
<path d="M786 6334 c-20 -19 -21 -58 -2 -74 18 -14 58 -10 64 8 3 11 1 11 -17
0 -18 -11 -23 -10 -38 5 -16 16 -15 17 19 17 44 0 56 15 32 41 -21 23 -37 24
-58 3z m49 -14 c4 -6 -5 -10 -19 -10 -14 0 -26 5 -26 10 0 6 9 10 19 10 11 0
23 -4 26 -10z"/>
<path d="M898 6343 c-14 -3 -18 -14 -17 -51 1 -26 3 -38 6 -27 2 11 6 30 9 43
3 14 12 22 24 22 17 0 20 -7 20 -40 0 -51 18 -53 22 -2 2 29 7 37 23 37 16 0
21 -9 26 -40 l6 -40 2 41 c1 49 -17 71 -46 55 -12 -6 -25 -6 -34 0 -7 5 -16 8
-19 8 -3 -1 -13 -3 -22 -6z"/>
<path d="M1176 6334 c-20 -19 -21 -58 -2 -74 19 -15 58 -9 64 10 5 13 3 13
-11 1 -18 -14 -47 -9 -47 9 0 5 13 10 29 10 38 0 48 16 25 41 -21 23 -37 24
-58 3z m54 -14 c0 -5 -11 -10 -25 -10 -14 0 -25 5 -25 10 0 6 11 10 25 10 14
0 25 -4 25 -10z"/>
<path d="M1300 6341 c-8 -6 -18 -7 -22 -5 -4 3 -7 -16 -7 -43 1 -26 3 -39 6
-28 2 11 6 30 9 43 2 12 11 22 19 22 8 0 15 5 15 10 0 12 -1 12 -20 1z"/>
<path d="M1353 6343 c-23 -9 -15 -42 12 -49 14 -3 25 -12 25 -20 0 -16 -26
-19 -35 -4 -3 6 -11 10 -17 10 -7 0 -6 -6 2 -15 7 -8 23 -15 37 -15 30 0 43
30 19 44 -10 6 -25 17 -34 24 -15 12 -12 13 18 8 33 -5 34 -5 16 9 -21 16 -24
16 -43 8z"/>
<path d="M322 6268 c-7 -7 -12 -21 -12 -32 1 -18 3 -17 16 7 12 21 22 27 49
27 27 0 37 -6 49 -27 13 -24 15 -25 16 -7 0 30 -20 44 -65 44 -23 0 -46 -5
-53 -12z"/>
<path d="M468 6250 c12 -21 18 -25 20 -14 5 23 -5 44 -22 44 -13 0 -13 -4 2
-30z"/>
<path d="M373 5926 c-4 -8 -17 -15 -28 -18 -17 -3 -20 -11 -20 -58 0 -47 3
-55 20 -58 11 -3 24 -10 28 -18 4 -8 17 -14 27 -14 10 0 23 6 27 14 4 8 17 15
28 18 17 3 20 11 20 58 0 47 -3 55 -20 58 -11 3 -24 10 -28 18 -4 8 -17 14
-27 14 -10 0 -23 -6 -27 -14z m41 -21 c3 -8 17 -15 31 -15 23 0 24 -2 13 -20
-10 -16 -10 -24 0 -40 11 -18 10 -20 -12 -20 -14 0 -30 -8 -36 -17 -10 -17
-10 -17 -20 0 -6 9 -22 17 -36 17 -22 0 -23 2 -12 20 10 16 10 24 0 40 -11 18
-10 20 13 20 14 0 28 7 31 15 4 8 10 15 14 15 4 0 10 -7 14 -15z"/>
<path d="M374 5866 c-10 -26 4 -48 28 -44 17 2 23 10 23 28 0 18 -6 26 -23 28
-13 2 -25 -3 -28 -12z m42 -7 c10 -17 -13 -36 -27 -22 -12 12 -4 33 11 33 5 0
12 -5 16 -11z"/>
<path d="M621 5917 c-16 -21 -4 -44 30 -56 32 -11 39 -38 13 -48 -10 -4 -22 1
-30 12 -8 10 -17 16 -20 12 -4 -4 -1 -14 6 -22 17 -20 60 -15 74 8 11 19 0 32
-50 63 -16 10 -17 14 -6 25 10 11 16 11 33 0 18 -10 20 -10 17 1 -6 18 -52 22
-67 5z"/>
<path d="M832 5900 c-7 -11 -8 -20 -3 -20 6 0 11 -17 13 -37 2 -29 8 -39 23
-41 18 -2 18 -2 3 8 -11 6 -18 23 -18 40 0 19 6 30 18 33 15 4 15 5 0 6 -9 0
-18 8 -20 16 -2 13 -6 12 -16 -5z"/>
<path d="M910 5905 c0 -8 -6 -15 -12 -15 -10 0 -10 -2 -1 -8 6 -4 13 -23 15
-42 2 -26 8 -36 23 -38 18 -2 18 -2 3 8 -21 13 -24 67 -5 72 9 2 8 8 -5 21
-15 14 -18 14 -18 2z"/>
<path d="M736 5884 c-20 -19 -21 -58 -2 -74 19 -15 58 -9 64 10 5 13 3 13 -11
1 -18 -14 -47 -9 -47 9 0 5 13 10 29 10 38 0 48 16 25 41 -21 23 -37 24 -58 3z
m54 -14 c0 -5 -11 -10 -25 -10 -14 0 -25 5 -25 10 0 6 11 10 25 10 14 0 25 -4
25 -10z"/>
<path d="M1045 5890 c-4 -6 -11 -8 -16 -5 -5 4 -8 -14 -8 -42 l2 -48 6 40 c5
32 11 41 29 43 20 3 22 -1 22 -37 0 -23 5 -41 10 -41 6 0 10 18 10 40 0 29 -5
42 -19 50 -24 13 -28 13 -36 0z"/>
<path d="M1138 5886 c-9 -9 -14 -34 -14 -67 l1 -54 35 0 c29 0 36 4 38 23 3
18 -3 23 -30 29 -31 6 -32 7 -8 13 19 5 57 49 47 56 -16 11 -58 11 -69 0z m40
-23 c-2 -10 -10 -18 -18 -18 -8 0 -16 8 -18 18 -2 12 3 17 18 17 15 0 20 -5
18 -17z m9 -77 c-5 -15 -37 -20 -49 -8 -6 6 -8 15 -4 20 8 13 58 2 53 -12z"/>
<path d="M1243 5893 c-23 -9 -15 -42 12 -49 14 -3 25 -12 25 -20 0 -16 -26
-19 -35 -4 -3 6 -11 10 -17 10 -7 0 -6 -6 2 -15 7 -8 23 -15 37 -15 30 0 43
30 19 44 -10 6 -25 17 -34 24 -15 12 -12 13 18 8 33 -5 34 -5 16 9 -21 16 -24
16 -43 8z"/>
<path d="M970 5845 c0 -25 5 -45 10 -45 6 0 10 20 10 45 0 25 -4 45 -10 45 -5
0 -10 -20 -10 -45z"/>
<path d="M4543 5835 c-40 -17 -46 -49 -8 -39 l25 6 0 -111 c0 -104 1 -111 20
-111 19 0 20 7 20 135 0 147 1 145 -57 120z"/>
<path d="M4672 5843 c-13 -5 -42 -55 -42 -73 0 -22 41 -10 50 16 8 21 15 25
42 22 30 -3 33 -6 36 -41 3 -35 -2 -43 -62 -102 -36 -36 -66 -69 -66 -75 0 -6
38 -10 95 -10 78 0 95 3 95 15 0 12 -13 15 -55 15 -30 0 -55 2 -55 5 0 3 18
23 39 46 51 51 68 99 51 140 -7 16 -21 34 -31 39 -18 10 -75 12 -97 3z"/>
<path d="M9270 5837 c-54 -27 -77 -133 -44 -203 39 -82 158 -84 199 -4 19 37
19 123 0 160 -29 56 -96 77 -155 47z m110 -54 c18 -23 21 -38 18 -80 -7 -79
-51 -113 -108 -83 -41 22 -49 114 -15 167 23 34 77 32 105 -4z"/>
<path d="M13918 5837 c-34 -13 -41 -52 -8 -42 19 6 20 2 20 -104 0 -104 1
-111 20 -111 19 0 20 7 20 135 0 145 1 143 -52 122z"/>
<path d="M2861 5278 c-1 -21 -7 -28 -28 -31 l-28 -4 28 -2 c22 -1 27 -6 28
-28 1 -28 1 -28 8 -3 4 14 17 27 31 31 l25 7 -27 1 c-21 1 -28 7 -31 29 l-4
27 -2 -27z"/>
<path d="M311 5238 c1 -29 4 -43 6 -31 2 12 12 24 21 26 15 4 14 5 -2 6 -14 1
-17 7 -14 26 3 14 1 25 -3 25 -5 0 -8 -24 -8 -52z"/>
<path d="M365 5265 c0 -13 3 -21 8 -18 4 2 7 10 7 18 0 8 -3 16 -7 18 -5 3 -8
-5 -8 -18z"/>
<path d="M460 5255 c-26 -31 13 -82 44 -56 19 16 21 42 4 59 -16 16 -33 15
-48 -3z m45 -25 c0 -16 -6 -26 -18 -28 -19 -4 -32 20 -23 44 9 25 41 13 41
-16z"/>
<path d="M590 5256 c-27 -33 12 -88 42 -58 6 6 0 8 -16 5 -23 -5 -26 -2 -26
20 0 14 8 31 18 36 9 6 12 11 6 11 -6 0 -17 -7 -24 -14z"/>
<path d="M691 5267 c2 -1 13 -9 24 -17 19 -14 19 -14 6 3 -7 9 -18 17 -24 17
-6 0 -8 -1 -6 -3z"/>
<path d="M750 5260 c0 -5 5 -10 10 -10 6 0 10 5 10 10 0 6 -4 10 -10 10 -5 0
-10 -4 -10 -10z"/>
<path d="M817 5263 c-11 -10 -8 -33 4 -33 5 0 7 5 3 11 -3 6 0 15 7 20 8 5 9
9 3 9 -6 0 -14 -3 -17 -7z"/>
<path d="M400 5225 c0 -19 2 -35 4 -35 2 0 6 16 8 35 2 19 0 35 -4 35 -4 0 -8
-16 -8 -35z"/>
<path d="M538 5210 c-1 -28 0 -50 5 -50 4 0 7 23 7 50 0 65 -7 65 -12 0z"/>
<path d="M666 5245 c-9 -26 -7 -32 5 -12 6 10 9 21 6 23 -2 3 -7 -2 -11 -11z"/>
<path d="M847 5213 c5 -13 2 -15 -15 -11 -12 4 -22 2 -22 -4 0 -17 45 -4 48
15 2 9 -1 17 -7 17 -6 0 -8 -7 -4 -17z"/>
<path d="M677 5198 c2 -5 13 -8 23 -8 10 0 21 3 23 8 3 4 -8 7 -23 7 -15 0
-26 -3 -23 -7z"/>
<path d="M760 5200 c0 -6 7 -10 15 -10 8 0 15 2 15 4 0 2 -7 6 -15 10 -8 3
-15 1 -15 -4z"/>
<path d="M390 4916 c0 -2 7 -9 15 -16 13 -11 14 -10 9 4 -5 14 -24 23 -24 12z"/>
<path d="M465 4900 c-10 -11 -16 -22 -13 -25 3 -3 13 4 23 15 10 11 16 22 13
25 -3 3 -13 -4 -23 -15z"/>
<path d="M1035 4900 c-3 -5 -1 -10 4 -10 6 0 11 5 11 10 0 6 -2 10 -4 10 -3 0
-8 -4 -11 -10z"/>
<path d="M1093 4902 c-13 -8 -16 -23 -14 -79 1 -54 21 -57 21 -3 0 25 5 40 13
40 9 0 9 2 -1 8 -7 5 -10 16 -6 25 7 19 5 20 -13 9z"/>
<path d="M656 4883 c-7 -18 1 -30 36 -47 12 -6 23 -18 23 -26 0 -22 -35 -24
-50 -3 -8 10 -15 13 -15 7 0 -19 27 -36 52 -32 34 5 32 49 -4 66 -16 7 -28 20
-28 28 0 17 37 19 43 2 2 -7 8 -10 12 -6 13 12 -6 28 -35 28 -17 0 -30 -7 -34
-17z"/>
<path d="M972 4874 c-7 -8 -8 -15 -2 -19 6 -3 10 -22 10 -41 0 -26 4 -34 18
-33 10 0 12 3 5 6 -15 5 -18 70 -4 75 5 2 4 8 -3 14 -8 8 -15 7 -24 -2z"/>
<path d="M761 4800 c1 -40 4 -55 8 -40 5 20 12 25 36 25 25 0 30 4 33 28 4 37
-14 58 -49 55 -29 -2 -29 -3 -28 -68z m62 38 c14 -21 2 -48 -22 -48 -24 0 -37
36 -20 56 14 17 28 14 42 -8z"/>
<path d="M869 4849 c-17 -33 4 -71 38 -67 36 4 50 29 35 62 -15 33 -56 35 -73
5z m56 -24 c0 -23 -4 -30 -20 -30 -21 0 -31 25 -21 51 11 28 41 12 41 -21z"/>
<path d="M1030 4825 c0 -25 5 -45 10 -45 6 0 10 20 10 45 0 25 -4 45 -10 45
-5 0 -10 -20 -10 -45z"/>
<path d="M1130 4865 c0 -3 9 -23 19 -43 14 -28 17 -42 9 -56 -5 -9 -7 -20 -4
-23 6 -6 56 103 56 121 -1 6 -9 -4 -19 -23 l-18 -35 -17 32 c-15 29 -26 40
-26 27z"/>
<path d="M407 4833 c-4 -3 -7 -14 -7 -24 0 -21 32 -20 41 1 9 20 -19 39 -34
23z"/>
<path d="M6865 4580 c-3 -5 -1 -10 4 -10 6 0 11 5 11 10 0 6 -2 10 -4 10 -3 0
-8 -4 -11 -10z"/>
<path d="M5980 4521 c0 -34 4 -61 10 -61 6 0 10 11 10 25 0 33 24 32 39 -1 6
-15 14 -24 17 -21 3 3 0 15 -6 27 -9 17 -9 24 0 30 6 4 10 18 8 31 -2 20 -10
25 -40 27 l-38 3 0 -60z m65 24 c0 -13 -8 -21 -22 -23 -19 -3 -23 1 -23 23 0
22 4 26 23 23 14 -2 22 -10 22 -23z"/>
<path d="M6601 4518 c1 -35 4 -51 6 -36 3 20 11 28 30 30 58 7 51 68 -8 68
l-29 0 1 -62z m57 30 c-2 -15 -11 -24 -25 -26 -19 -3 -23 1 -23 22 0 21 5 26
26 26 21 0 25 -4 22 -22z"/>
<path d="M10590 4521 c0 -34 4 -61 10 -61 6 0 10 11 10 25 0 33 24 32 39 -1 6
-15 14 -24 17 -21 3 3 0 15 -6 27 -9 17 -9 24 0 30 6 4 10 18 8 31 -2 20 -10
25 -40 27 l-38 3 0 -60z m65 24 c0 -13 -8 -21 -22 -23 -19 -3 -23 1 -23 23 0
22 4 26 23 23 14 -2 22 -10 22 -23z"/>
<path d="M11217 4573 c19 -4 23 -12 26 -61 l3 -57 2 57 c2 50 5 57 25 61 12 2
0 4 -28 4 -27 0 -40 -2 -28 -4z"/>
<path d="M11470 4520 c0 -33 4 -60 10 -60 6 0 10 10 11 23 l0 22 16 -22 c8
-13 20 -23 26 -23 5 0 3 8 -6 18 -21 23 -21 36 -2 52 9 7 13 15 10 18 -3 3
-14 -3 -25 -13 -20 -18 -20 -17 -20 13 0 18 -4 32 -10 32 -6 0 -10 -27 -10
-60z"/>
<path d="M14931 4518 c1 -35 4 -51 6 -35 5 34 26 35 41 2 6 -14 16 -25 22 -25
7 0 7 7 -1 21 -8 16 -8 27 1 45 17 31 -1 54 -41 54 l-29 0 1 -62z m57 30 c-2
-15 -11 -24 -25 -26 -19 -3 -23 1 -23 22 0 21 5 26 26 26 21 0 25 -4 22 -22z"/>
<path d="M15540 4520 c0 -33 4 -60 10 -60 6 0 10 19 11 43 l0 42 16 -32 c9
-18 20 -33 25 -33 5 0 16 16 26 37 l17 36 6 -49 6 -49 1 63 c1 34 -2 62 -6 62
-4 0 -17 -19 -29 -42 l-20 -43 -22 43 c-12 23 -26 42 -31 42 -6 0 -10 -27 -10
-60z"/>
<path d="M15940 4522 l0 -59 32 -1 c39 -1 58 13 58 43 0 29 -24 49 -50 42 -15
-4 -20 0 -20 14 0 10 -4 19 -10 19 -6 0 -10 -26 -10 -58z m74 -5 c8 -12 7 -21
-6 -33 -22 -22 -48 -11 -48 20 0 37 34 45 54 13z"/>
<path d="M6489 4561 c-3 -8 -2 -32 1 -55 4 -31 10 -41 25 -44 18 -2 18 -2 3 8
-10 6 -18 22 -18 35 0 13 8 29 18 34 15 9 15 10 0 11 -9 0 -18 6 -20 13 -4 9
-6 8 -9 -2z"/>
<path d="M7108 4559 c-2 -7 -1 -30 2 -53 4 -31 10 -41 25 -43 11 -2 14 0 8 3
-16 7 -17 74 -2 74 6 0 4 7 -5 15 -18 18 -23 19 -28 4z"/>
<path d="M11098 4559 c-2 -7 -1 -30 2 -53 4 -31 10 -41 25 -43 11 -2 14 0 8 3
-16 7 -17 74 -2 74 6 0 4 7 -5 15 -18 18 -23 19 -28 4z"/>
<path d="M15428 4559 c-2 -7 -1 -30 2 -53 4 -31 10 -41 25 -43 11 -2 14 0 8 3
-16 7 -17 74 -2 74 6 0 4 7 -5 15 -18 18 -23 19 -28 4z"/>
<path d="M6092 4538 c-7 -7 -12 -21 -12 -33 0 -42 45 -60 71 -28 13 15 12 15
-8 2 -20 -12 -25 -11 -40 4 -16 16 -15 17 20 17 24 0 37 5 37 13 0 18 -21 37
-40 37 -9 0 -21 -5 -28 -12z m42 -4 c27 -10 18 -24 -15 -24 -27 0 -30 2 -19
15 14 17 13 17 34 9z"/>
<path d="M6192 4538 c-7 -7 -12 -21 -12 -33 0 -43 46 -60 71 -27 11 14 11 15
-1 5 -21 -20 -48 -15 -55 8 -9 28 19 59 37 41 17 -17 33 -15 18 3 -15 18 -42
19 -58 3z"/>
<path d="M6292 4538 c-27 -27 -7 -78 29 -78 10 0 20 4 23 9 3 4 -5 6 -18 4
-15 -3 -25 1 -29 11 -5 13 1 16 28 16 22 0 35 5 35 13 0 18 -21 37 -40 37 -9
0 -21 -5 -28 -12z m48 -13 c11 -13 8 -15 -20 -15 -28 0 -31 2 -20 15 7 8 16
15 20 15 4 0 13 -7 20 -15z"/>
<path d="M6381 4500 c1 -44 1 -44 9 -12 15 64 50 68 50 6 0 -19 5 -34 10 -34
14 0 12 66 -2 78 -7 6 -25 10 -40 9 -26 -2 -28 -5 -27 -47z"/>
<path d="M6702 4500 c1 -37 2 -39 5 -12 3 18 11 36 19 39 21 8 17 19 -6 19
-17 0 -20 -6 -18 -46z"/>
<path d="M6770 4536 c-28 -35 11 -93 48 -70 35 22 22 84 -18 84 -10 0 -23 -7
-30 -14z m53 -18 c14 -21 2 -48 -22 -48 -24 0 -37 36 -20 56 14 17 28 14 42
-8z"/>
<path d="M6872 4500 c-1 -31 -7 -61 -14 -68 -9 -9 -9 -12 0 -12 19 0 24 21 19
81 l-3 54 -2 -55z"/>
<path d="M6909 4529 c-17 -34 4 -71 38 -67 14 2 29 10 31 18 5 13 3 13 -11 1
-18 -14 -47 -9 -47 9 0 5 14 10 30 10 23 0 30 5 30 19 0 35 -53 42 -71 10z
m59 -6 c2 -8 -6 -13 -22 -13 -25 0 -33 10 -19 24 10 10 36 3 41 -11z"/>
<path d="M7016 4535 c-19 -20 -20 -35 -3 -59 15 -21 58 -18 65 4 5 13 3 13
-11 1 -23 -19 -47 -7 -47 24 0 31 24 43 47 24 14 -12 16 -12 11 1 -7 21 -43
24 -62 5z"/>
<path d="M7174 4536 c-8 -21 3 -36 27 -36 10 0 19 -7 19 -15 0 -18 -21 -20
-39 -2 -11 10 -13 9 -9 -3 7 -22 62 -20 66 3 2 9 -4 19 -12 22 -9 3 -24 7 -33
10 -12 4 -13 9 -5 17 8 8 16 8 28 -3 15 -12 17 -12 12 1 -6 21 -47 25 -54 6z"/>
<path d="M10702 4538 c-27 -27 -7 -78 29 -78 10 0 20 4 23 9 3 4 -5 6 -18 4
-15 -3 -25 1 -29 11 -5 13 1 16 28 16 22 0 35 5 35 13 0 18 -21 37 -40 37 -9
0 -21 -5 -28 -12z m48 -13 c11 -13 8 -15 -20 -15 -28 0 -31 2 -20 15 7 8 16
15 20 15 4 0 13 -7 20 -15z"/>
<path d="M10802 4538 c-7 -7 -12 -21 -12 -33 0 -43 46 -60 71 -27 11 14 11 15
-1 5 -21 -20 -48 -15 -55 8 -9 28 19 59 37 41 17 -17 33 -15 18 3 -15 18 -42
19 -58 3z"/>
<path d="M10902 4538 c-27 -27 -7 -78 29 -78 10 0 20 4 23 9 3 4 -5 6 -18 4
-15 -3 -25 1 -29 11 -5 13 1 16 28 16 22 0 35 5 35 13 0 18 -21 37 -40 37 -9
0 -21 -5 -28 -12z m48 -13 c11 -13 8 -15 -20 -15 -28 0 -31 2 -20 15 7 8 16
15 20 15 4 0 13 -7 20 -15z"/>
<path d="M10990 4503 c0 -53 18 -57 22 -5 2 25 8 37 18 37 10 0 16 -12 18 -37
4 -47 22 -50 22 -4 0 40 -15 55 -52 53 -26 -2 -28 -5 -28 -44z"/>
<path d="M11300 4535 c-7 -9 -8 -15 -2 -15 6 0 12 5 14 12 5 13 38 4 38 -11 0
-5 -12 -11 -27 -13 -20 -2 -28 -9 -28 -23 0 -16 7 -20 33 -21 33 -1 33 0 30
40 -2 33 -7 42 -24 44 -11 2 -27 -4 -34 -13z m50 -44 c0 -6 -5 -13 -10 -16
-15 -9 -43 3 -35 15 8 13 45 13 45 1z"/>
<path d="M11397 4544 c-15 -15 -6 -35 19 -44 14 -6 22 -14 19 -20 -8 -13 -35
-13 -35 0 0 6 -4 10 -10 10 -5 0 -7 -7 -3 -16 8 -21 57 -14 61 8 2 12 -6 21
-22 28 -27 10 -36 30 -13 30 7 0 19 -6 26 -12 11 -11 13 -10 9 2 -5 16 -39 25
-51 14z"/>
<path d="M11567 4544 c-15 -15 -6 -35 19 -44 14 -6 22 -14 19 -20 -8 -13 -35
-13 -35 0 0 6 -4 10 -10 10 -5 0 -7 -7 -3 -16 8 -21 57 -14 61 8 2 12 -6 21
-22 28 -27 10 -36 30 -13 30 7 0 19 -6 26 -12 11 -11 13 -10 9 2 -5 16 -39 25
-51 14z"/>
<path d="M15029 4529 c-17 -34 4 -71 38 -67 14 2 29 10 31 18 5 13 3 13 -11 1
-18 -14 -47 -9 -47 9 0 5 16 10 35 10 29 0 33 3 28 18 -14 37 -56 44 -74 11z
m59 -6 c2 -8 -6 -13 -22 -13 -25 0 -33 10 -19 24 10 10 36 3 41 -11z"/>
<path d="M15132 4538 c-16 -16 -15 -53 2 -68 18 -14 58 -10 64 8 3 11 0 11
-16 1 -17 -10 -23 -10 -36 0 -9 8 -16 19 -16 26 0 7 7 18 16 26 12 10 20 10
35 1 10 -7 19 -8 19 -3 0 20 -50 27 -68 9z"/>
<path d="M15229 4529 c-17 -34 4 -71 38 -67 14 2 29 10 31 18 5 13 3 13 -11 1
-18 -14 -47 -9 -47 9 0 5 16 10 35 10 29 0 33 3 28 18 -14 37 -56 44 -74 11z
m59 -6 c2 -8 -6 -13 -22 -13 -25 0 -33 10 -19 24 10 10 36 3 41 -11z"/>
<path d="M15320 4504 c0 -24 5 -44 10 -44 6 0 10 15 10 34 0 62 45 55 53 -7 4
-32 4 -32 5 4 2 42 -11 57 -50 57 -26 0 -28 -3 -28 -44z"/>
<path d="M15689 4529 c-17 -34 4 -71 38 -67 14 2 29 10 31 18 5 13 3 13 -11 1
-18 -14 -47 -9 -47 9 0 5 16 10 35 10 29 0 33 3 28 18 -14 37 -56 44 -74 11z
m59 -6 c2 -8 -6 -13 -22 -13 -25 0 -33 10 -19 24 10 10 36 3 41 -11z"/>
<path d="M15792 4501 c1 -41 2 -42 5 -11 3 19 8 39 13 44 15 15 40 -14 41 -48
2 -28 2 -27 8 9 8 53 35 55 39 3 4 -48 22 -50 22 -4 0 43 -11 51 -77 52 l-53
0 2 -45z"/>
<path d="M16062 4538 c-27 -27 -7 -78 29 -78 10 0 20 4 23 9 3 4 -5 6 -18 4
-15 -3 -25 1 -29 11 -5 13 1 16 28 16 22 0 35 5 35 13 0 18 -21 37 -40 37 -9
0 -21 -5 -28 -12z m48 -13 c11 -13 8 -15 -20 -15 -28 0 -31 2 -20 15 7 8 16
15 20 15 4 0 13 -7 20 -15z"/>
<path d="M16150 4503 c0 -24 5 -43 10 -43 6 0 10 14 10 31 0 19 7 37 17 44 16
12 15 13 -10 12 -25 -2 -27 -5 -27 -44z"/>
<path d="M16227 4544 c-15 -15 -6 -35 19 -44 14 -6 22 -14 19 -20 -8 -13 -35
-13 -35 0 0 6 -4 10 -10 10 -5 0 -7 -7 -3 -16 8 -21 57 -14 61 8 2 12 -6 21
-22 28 -27 10 -36 30 -13 30 7 0 19 -6 26 -12 11 -11 13 -10 9 2 -5 16 -39 25
-51 14z"/>
<path d="M381 4463 c0 -7 -7 -13 -14 -13 -7 0 -17 -13 -23 -28 -12 -31 -3 -65
23 -94 21 -23 80 -23 105 -1 18 16 17 18 -14 50 -23 24 -28 33 -16 33 9 0 20
4 23 10 4 7 -2 7 -18 1 -37 -14 -41 0 -10 26 22 19 23 22 6 13 -12 -5 -25 -15
-28 -20 -10 -17 -23 -11 -28 13 -2 12 -5 16 -6 10z m20 -80 c-8 -15 -10 -15
-11 -2 0 17 10 32 18 25 2 -3 -1 -13 -7 -23z m47 -13 c11 -18 10 -20 -13 -20
-24 0 -34 18 -18 33 10 11 17 8 31 -13z"/>
<path d="M655 4450 c-3 -5 -1 -10 4 -10 6 0 11 5 11 10 0 6 -2 10 -4 10 -3 0
-8 -4 -11 -10z"/>
<path d="M800 4398 l0 -63 32 -2 c38 -3 58 12 58 42 0 29 -24 49 -50 42 -15
-4 -20 0 -20 13 0 11 -4 22 -10 25 -6 4 -10 -17 -10 -57z m69 -7 c13 -24 -9
-57 -33 -48 -16 6 -22 47 -9 60 12 13 32 7 42 -12z"/>
<path d="M662 4370 c-1 -31 -7 -61 -14 -68 -9 -9 -9 -12 0 -12 19 0 24 21 19
81 l-3 54 -2 -55z"/>
<path d="M699 4399 c-17 -33 4 -71 38 -67 36 4 50 29 35 62 -15 33 -56 35 -73
5z m56 -24 c0 -23 -4 -30 -20 -30 -21 0 -31 25 -21 51 11 28 41 12 41 -21z"/>
<path d="M923 4413 l28 -4 -25 -34 c-14 -19 -26 -36 -26 -39 0 -3 17 -5 38 -5
31 2 32 3 9 6 l-28 4 25 34 c14 19 26 36 26 39 0 3 -17 5 -37 5 -32 -2 -33 -3
-10 -6z"/>
<path d="M990 4412 c0 -7 7 -27 16 -44 12 -24 13 -36 5 -54 -6 -13 -7 -24 -2
-24 9 0 63 121 57 128 -3 2 -12 -11 -22 -29 l-16 -33 -19 35 c-10 19 -18 28
-19 21z"/>
<path d="M409 4016 c-25 -12 -36 -46 -23 -74 4 -9 8 -21 8 -27 2 -13 35 -7 64
11 24 15 32 66 10 62 -7 -2 -12 4 -10 13 3 23 -20 30 -49 15z"/>
<path d="M1373 3945 c0 -38 2 -53 4 -32 2 20 2 52 0 70 -2 17 -4 1 -4 -38z"/>
<path d="M1413 3945 c0 -38 2 -53 4 -32 2 20 2 52 0 70 -2 17 -4 1 -4 -38z"/>
<path d="M650 3997 c0 -16 42 -117 49 -117 10 0 53 111 46 118 -5 5 -35 -60
-35 -78 0 -24 -19 -7 -30 28 -11 34 -30 65 -30 49z"/>
<path d="M880 3981 c0 -14 -5 -18 -20 -14 -26 7 -50 -13 -50 -42 0 -30 19 -44
58 -43 l32 1 0 59 c0 32 -4 58 -10 58 -5 0 -10 -9 -10 -19z m-2 -54 c4 -33
-22 -47 -45 -25 -12 13 -13 20 -3 37 15 30 44 23 48 -12z"/>
<path d="M770 3925 c0 -25 5 -45 10 -45 6 0 10 20 10 45 0 25 -4 45 -10 45 -5
0 -10 -20 -10 -45z"/>
<path d="M932 3958 c-7 -7 -12 -21 -12 -33 0 -42 45 -60 71 -28 13 15 12 15
-8 2 -20 -12 -25 -11 -40 4 -16 16 -15 17 20 17 24 0 37 5 37 13 0 18 -21 37
-40 37 -9 0 -21 -5 -28 -12z m42 -4 c27 -10 18 -24 -15 -24 -27 0 -30 2 -19
15 14 17 13 17 34 9z"/>
<path d="M1030 3956 c-28 -35 11 -93 48 -70 35 22 22 84 -18 84 -10 0 -23 -7
-30 -14z m53 -18 c14 -21 2 -48 -22 -48 -24 0 -37 36 -20 56 14 17 28 14 42
-8z"/>
<path d="M1182 3958 c-16 -16 -15 -53 2 -68 18 -14 58 -10 64 8 3 11 0 11 -16
1 -17 -10 -23 -10 -36 0 -9 8 -16 19 -16 26 0 7 7 18 16 26 12 10 20 10 35 1
10 -7 19 -8 19 -3 0 20 -50 27 -68 9z"/>
<path d="M1280 3955 c-14 -17 0 -21 17 -4 6 6 16 8 22 5 19 -12 12 -25 -16
-28 -20 -2 -28 -9 -28 -23 0 -16 7 -20 38 -22 33 -1 37 2 37 24 0 54 -41 83
-70 48z m48 -47 c-7 -19 -38 -22 -38 -4 0 10 9 16 21 16 12 0 19 -5 17 -12z"/>
<path d="M1453 3925 c0 -27 2 -38 4 -22 2 15 2 37 0 50 -2 12 -4 0 -4 -28z"/>
<path d="M1492 3920 c1 -35 2 -38 5 -13 8 62 53 69 53 7 0 -19 5 -34 10 -34
13 0 13 46 0 71 -8 13 -20 19 -40 17 -29 -2 -30 -4 -28 -48z"/>
<path d="M1596 3961 c-3 -5 -5 -20 -4 -32 1 -13 -2 -33 -5 -45 -9 -26 13 -47
45 -42 14 2 24 11 26 24 2 16 -5 23 -30 31 -31 10 -32 11 -6 12 20 1 29 8 37
31 10 29 9 30 -24 30 -19 0 -36 -4 -39 -9z m42 -24 c2 -10 -3 -17 -12 -17 -18
0 -29 16 -21 31 9 14 29 6 33 -14z m10 -69 c-3 -7 -13 -13 -23 -13 -10 0 -20
6 -22 13 -3 7 5 12 22 12 17 0 25 -5 23 -12z"/>
<path d="M1740 3955 c-14 -17 0 -21 17 -4 6 6 16 8 22 5 19 -12 12 -25 -16
-28 -20 -2 -28 -9 -28 -23 0 -16 7 -20 38 -22 33 -1 37 2 37 24 0 54 -41 83
-70 48z m48 -47 c-7 -19 -38 -22 -38 -4 0 10 9 16 21 16 12 0 19 -5 17 -12z"/>
<path d="M1831 3901 c1 -36 4 -54 6 -40 3 22 8 25 33 21 20 -3 31 1 39 15 14
28 3 62 -23 67 -53 11 -56 7 -55 -63z m57 50 c20 -12 11 -56 -12 -56 -27 0
-43 29 -27 49 15 18 21 19 39 7z"/>
<path d="M1941 3900 c1 -40 4 -55 8 -40 5 20 12 25 36 25 25 0 30 4 33 28 4
37 -14 58 -49 55 -29 -2 -29 -3 -28 -68z m62 38 c14 -21 2 -48 -22 -48 -24 0
-37 36 -20 56 14 17 28 14 42 -8z"/>
<path d="M17618 3896 c-135 -36 -200 -183 -138 -311 70 -145 294 -159 378 -23
107 173 -46 386 -240 334z m12 -181 c7 -25 16 -47 20 -50 3 -2 14 18 24 46 10
27 24 49 32 49 11 0 8 -15 -11 -67 -14 -37 -28 -69 -30 -71 -13 -13 -34 13
-53 66 -26 70 -26 72 -8 72 7 0 19 -20 26 -45z m120 -25 c0 -40 -4 -70 -10
-70 -6 0 -10 30 -10 70 0 40 4 70 10 70 6 0 10 -30 10 -70z"/>
<path d="M4440 3894 c0 -15 37 -61 44 -54 3 3 -6 19 -19 35 -13 17 -24 25 -25
19z"/>
<path d="M4547 3864 c-15 -18 -24 -35 -19 -38 13 -8 68 52 56 63 -5 5 -21 -5
-37 -25z"/>
<path d="M5198 3881 c-15 -21 -12 -111 3 -111 5 0 9 18 9 40 0 25 5 40 13 40
9 0 9 2 -1 8 -7 5 -10 16 -6 25 8 23 -2 21 -18 -2z"/>
<path d="M4777 3884 c-17 -18 -6 -46 23 -55 17 -6 30 -17 30 -25 0 -19 -28
-30 -43 -15 -17 17 -31 13 -17 -4 26 -31 88 -8 74 28 -3 9 -19 20 -35 26 -16
5 -29 15 -29 21 0 18 29 23 47 9 14 -12 16 -12 11 1 -5 16 -49 26 -61 14z"/>
<path d="M5082 3864 c-7 -8 -8 -14 -3 -14 5 0 11 -17 13 -37 2 -22 9 -38 18
-41 12 -4 13 -2 3 9 -20 20 -16 69 5 70 13 0 14 2 2 6 -8 3 -17 9 -20 13 -3 4
-11 2 -18 -6z"/>
<path d="M4871 3791 c1 -36 4 -54 6 -40 3 22 8 25 33 21 24 -3 31 0 38 19 17
46 -5 70 -60 67 -15 -1 -18 -11 -17 -67z m57 50 c20 -12 11 -56 -12 -56 -27 0
-43 29 -27 49 15 18 21 19 39 7z"/>
<path d="M4994 3852 c-32 -22 -18 -82 19 -82 29 0 47 17 47 45 0 36 -37 57
-66 37z m50 -25 c8 -12 7 -21 -6 -33 -22 -22 -48 -11 -48 20 0 37 34 45 54 13z"/>
<path d="M5153 3815 c0 -27 2 -38 4 -22 2 15 2 37 0 50 -2 12 -4 0 -4 -28z"/>
<path d="M5256 3823 c19 -43 19 -50 9 -78 -17 -45 14 2 39 58 26 60 21 80 -6
25 l-17 -33 -12 33 c-8 17 -17 32 -21 32 -5 0 -1 -17 8 -37z"/>
<path d="M4465 3767 c-6 -7 -11 -22 -11 -34 0 -17 6 -21 27 -21 34 1 46 39 17
57 -21 13 -20 13 -33 -2z"/>
<path d="M16379 3733 c-12 -16 -12 -17 1 -6 8 6 26 13 40 16 l25 4 -26 2 c-15
0 -33 -7 -40 -16z"/>
<path d="M16978 3694 c-1 -31 0 -58 5 -61 4 -2 7 23 7 56 0 76 -7 79 -12 5z"/>
<path d="M16747 3722 c-2 -4 0 -23 4 -42 l6 -35 2 32 c0 17 6 33 13 35 8 3 6
7 -5 11 -9 3 -18 3 -20 -1z"/>
<path d="M16562 3708 c-24 -24 -13 -38 26 -36 36 1 36 1 5 5 -38 5 -43 20 -10
33 13 5 16 9 7 9 -9 1 -21 -4 -28 -11z"/>
<path d="M16659 3703 c-13 -16 -12 -17 3 -4 10 7 25 11 33 7 9 -3 13 -2 10 4
-10 15 -31 12 -46 -7z"/>
<path d="M16822 3708 c-24 -24 -13 -38 26 -36 36 1 36 1 5 5 -38 5 -43 20 -10
33 13 5 16 9 7 9 -9 1 -21 -4 -28 -11z"/>
<path d="M16920 3705 c-7 -9 -10 -18 -6 -22 3 -3 6 -1 6 6 0 6 10 16 23 21 15
6 17 9 6 9 -9 1 -22 -6 -29 -14z"/>
<path d="M16362 3690 c0 -14 2 -19 5 -12 2 6 2 18 0 25 -3 6 -5 1 -5 -13z"/>
<path d="M16493 3670 c0 -25 2 -35 4 -22 2 12 2 32 0 45 -2 12 -4 2 -4 -23z"/>
<path d="M17075 3699 c-4 -6 -5 -12 -2 -15 2 -3 7 2 10 11 7 17 1 20 -8 4z"/>
<path d="M16685 3681 c-34 -7 -44 -44 -12 -47 12 -1 13 -1 2 3 -26 8 -17 33
11 33 19 0 25 -4 21 -15 -4 -8 -2 -17 3 -20 6 -4 10 7 10 24 0 17 -1 30 -2 30
-2 -1 -16 -4 -33 -8z"/>
<path d="M17141 3674 c0 -11 3 -14 6 -6 3 7 2 16 -1 19 -3 4 -6 -2 -5 -13z"/>
<path d="M16910 3664 c0 -17 27 -37 42 -31 8 4 7 6 -4 6 -9 1 -22 9 -27 19 -6
9 -11 12 -11 6z"/>
<path d="M16379 3648 c7 -10 24 -18 36 -18 12 0 29 8 36 18 11 14 11 15 -1 5
-8 -7 -23 -13 -35 -13 -12 0 -27 6 -35 13 -12 10 -12 9 -1 -5z"/>
<path d="M16562 3644 c9 -9 21 -15 27 -13 6 2 -2 10 -17 17 -25 11 -25 11 -10
-4z"/>
<path d="M16822 3644 c9 -9 21 -15 27 -13 6 2 -2 10 -17 17 -25 11 -25 11 -10
-4z"/>
<path d="M17070 3651 c0 -15 49 -26 62 -13 8 8 5 9 -11 5 -11 -3 -28 0 -36 7
-10 8 -15 9 -15 1z"/>
<path d="M17190 3651 c0 -5 5 -13 10 -16 6 -3 10 -2 10 4 0 5 -4 13 -10 16 -5
3 -10 2 -10 -4z"/>
<path d="M4772 3568 c1 -57 2 -59 5 -15 3 30 8 45 15 41 6 -4 6 1 -1 15 -7 11
-14 21 -16 21 -3 0 -4 -28 -3 -62z"/>
<path d="M4866 3613 c-6 -14 -5 -15 5 -6 7 7 10 15 7 18 -3 3 -9 -2 -12 -12z"/>
<path d="M5168 3583 c5 -76 10 -83 11 -15 0 34 -2 62 -7 62 -4 0 -6 -21 -4
-47z"/>
<path d="M5230 3626 c0 -2 11 -6 25 -8 13 -3 22 -1 19 3 -5 9 -44 13 -44 5z"/>
<path d="M5577 3623 c-3 -5 8 -8 23 -8 15 0 26 3 23 8 -2 4 -13 7 -23 7 -10 0
-21 -3 -23 -7z"/>
<path d="M5705 3623 c11 -3 27 -10 35 -17 13 -10 13 -9 1 7 -7 9 -23 16 -35
16 -20 -1 -20 -2 -1 -6z"/>
<path d="M5817 3624 c12 -3 24 -14 26 -25 4 -15 4 -14 3 3 -1 17 -8 23 -26 25
-21 1 -21 0 -3 -3z"/>
<path d="M5897 3623 c-4 -3 -7 -11 -7 -17 0 -7 3 -7 8 0 4 7 18 14 32 17 l25
4 -26 2 c-14 0 -29 -2 -32 -6z"/>
<path d="M5328 3609 c-8 -25 7 -92 22 -96 12 -4 12 -2 2 5 -8 5 -12 25 -11 50
3 41 -5 65 -13 41z"/>
<path d="M5666 3605 c-3 -9 -6 -26 -5 -38 1 -14 4 -9 9 13 9 37 7 52 -4 25z"/>
<path d="M5213 3591 c1 -14 9 -26 17 -28 10 -3 11 -2 4 4 -7 4 -14 17 -17 28
-5 16 -5 15 -4 -4z"/>
<path d="M5272 3579 c-8 -12 -9 -18 -3 -15 5 3 12 -2 14 -11 3 -10 5 -3 6 15
1 38 0 39 -17 11z"/>
<path d="M5420 3596 c0 -2 7 -7 16 -10 8 -3 12 -2 9 4 -6 10 -25 14 -25 6z"/>
<path d="M4972 3562 c-2 -24 -8 -35 -24 -42 -13 -5 -16 -9 -8 -9 29 -1 42 15
37 50 l-4 34 -1 -33z"/>
<path d="M5918 3583 c6 -2 18 -2 25 0 6 3 1 5 -13 5 -14 0 -19 -2 -12 -5z"/>
<path d="M5452 3540 c0 -19 2 -27 5 -17 2 9 2 25 0 35 -3 9 -5 1 -5 -18z"/>
<path d="M5805 3540 l-29 -30 40 1 c31 2 34 3 10 6 l-28 5 23 24 c12 13 20 24
18 24 -3 0 -18 -13 -34 -30z"/>
<path d="M1511 3500 l-1 -66 34 -2 c39 -3 62 24 51 58 -7 21 -46 37 -64 26 -5
-4 -12 6 -14 21 -2 16 -5 -1 -6 -37z m57 1 c20 -12 11 -56 -12 -56 -27 0 -43
29 -27 49 15 18 21 19 39 7z"/>
<path d="M1720 3550 c0 -5 5 -10 11 -10 5 0 7 5 4 10 -3 6 -8 10 -11 10 -2 0
-4 -4 -4 -10z"/>
<path d="M1760 3496 c0 -37 4 -66 10 -66 6 0 10 26 10 59 0 33 -4 63 -10 66
-6 4 -10 -18 -10 -59z"/>
<path d="M1870 3534 c0 -15 -4 -23 -11 -19 -17 11 -56 -4 -61 -23 -3 -10 -1
-28 3 -40 7 -18 15 -22 44 -20 l35 2 0 63 c0 35 -2 63 -5 63 -3 0 -5 -12 -5
-26z m-6 -47 c8 -12 7 -21 -6 -33 -22 -22 -48 -11 -48 20 0 37 34 45 54 13z"/>
<path d="M4817 3545 c3 -8 9 -12 14 -9 12 7 11 11 -5 17 -10 4 -13 1 -9 -8z"/>
<path d="M670 3494 c-11 -31 -18 -59 -16 -62 3 -3 8 3 12 12 8 21 64 22 64 1
0 -8 5 -15 11 -15 7 0 8 7 4 18 -4 9 -14 36 -22 60 -8 23 -19 42 -23 42 -5 0
-18 -25 -30 -56z m40 17 c0 -5 3 -16 6 -25 4 -12 0 -16 -15 -16 -22 0 -25 8
-15 34 7 17 24 22 24 7z"/>
<path d="M770 3490 c0 -33 4 -60 10 -60 6 0 10 27 10 60 0 33 -4 60 -10 60 -6
0 -10 -27 -10 -60z"/>
<path d="M5030 3531 c0 -5 5 -13 10 -16 6 -3 10 -2 10 4 0 5 -4 13 -10 16 -5
3 -10 2 -10 -4z"/>
<path d="M5222 3524 c9 -9 21 -15 27 -13 6 2 -2 10 -17 17 -25 11 -25 11 -10
-4z"/>
<path d="M5679 3527 c7 -10 21 -17 31 -17 10 0 24 7 31 17 13 15 12 15 -8 2
-20 -12 -26 -12 -45 0 -21 13 -22 13 -9 -2z"/>
<path d="M5570 3518 c0 -4 16 -8 35 -8 19 0 35 2 35 4 0 2 -16 6 -35 8 -19 2
-35 0 -35 -4z"/>
<path d="M5898 3518 c6 -6 18 -8 28 -6 14 3 12 5 -9 10 -19 3 -25 2 -19 -4z"/>
<path d="M862 3470 c1 -33 2 -37 5 -15 2 17 14 37 26 47 l21 16 -27 -1 c-25
-2 -27 -5 -25 -47z"/>
<path d="M934 3512 c-17 -11 -22 -35 -13 -60 7 -18 15 -23 36 -20 14 2 29 10
31 18 5 13 3 13 -11 1 -18 -14 -47 -9 -47 9 0 5 16 10 35 10 38 0 40 2 25 31
-11 19 -36 25 -56 11z m44 -19 c2 -8 -6 -13 -22 -13 -25 0 -33 10 -19 24 10
10 36 3 41 -11z"/>
<path d="M1027 3514 c-14 -15 -6 -35 18 -44 14 -5 25 -14 25 -20 0 -13 -27
-13 -35 0 -3 6 -11 10 -17 10 -6 0 -6 -6 2 -15 17 -20 54 -15 58 7 2 12 -6 21
-24 28 -20 8 -24 14 -16 22 8 8 16 7 28 -3 15 -12 17 -12 12 1 -5 16 -39 25
-51 14z"/>
<path d="M1100 3494 c0 -43 17 -65 50 -62 29 2 30 4 29 48 l-1 45 -8 -38 c-8
-44 -14 -51 -35 -44 -9 4 -15 19 -15 42 0 19 -4 35 -10 35 -5 0 -10 -12 -10
-26z"/>
<path d="M1212 3471 c1 -41 2 -42 5 -11 3 19 8 39 13 44 15 15 40 -14 41 -48
2 -28 2 -27 8 9 8 53 35 55 39 3 4 -48 22 -50 22 -4 0 43 -11 51 -77 52 l-53
0 2 -45z"/>
<path d="M1372 3508 c-7 -7 -12 -21 -12 -33 0 -42 45 -60 71 -28 13 15 12 15
-8 2 -20 -12 -25 -11 -40 4 -16 16 -15 17 20 17 24 0 37 5 37 13 0 18 -21 37
-40 37 -9 0 -21 -5 -28 -12z m42 -4 c27 -10 18 -24 -15 -24 -27 0 -30 2 -19
15 14 17 13 17 34 9z"/>
<path d="M1624 3480 c1 -44 2 -45 34 -46 32 -1 32 -1 31 45 l-2 46 -6 -40 c-5
-31 -10 -40 -26 -40 -16 0 -21 9 -26 40 l-7 40 2 -45z"/>
<path d="M1723 3475 c0 -27 2 -38 4 -22 2 15 2 37 0 50 -2 12 -4 0 -4 -28z"/>
<path d="M1924 3512 c-17 -11 -22 -35 -13 -60 7 -18 15 -23 36 -20 14 2 29 10
31 18 5 13 3 13 -11 1 -18 -14 -47 -9 -47 9 0 5 16 10 35 10 38 0 40 2 25 31
-11 19 -36 25 -56 11z m44 -19 c2 -8 -6 -13 -22 -13 -25 0 -33 10 -19 24 10
10 36 3 41 -11z"/>
<path d="M2012 3470 c1 -33 2 -37 5 -15 2 17 14 37 26 47 l21 16 -27 -1 c-25
-2 -27 -5 -25 -47z"/>
<path d="M17618 3126 c-135 -36 -200 -183 -138 -311 70 -145 294 -159 378 -23
107 173 -46 386 -240 334z m12 -191 c7 -25 16 -47 20 -50 3 -2 14 18 24 46 10
27 24 49 32 49 11 0 8 -15 -11 -67 -14 -37 -28 -69 -30 -71 -13 -13 -34 13
-53 66 -26 70 -26 72 -8 72 7 0 19 -20 26 -45z m120 -25 c0 -40 -4 -70 -10
-70 -6 0 -10 30 -10 70 0 40 4 70 10 70 6 0 10 -30 10 -70z"/>
<path d="M4426 3103 c-5 -13 -14 -19 -22 -16 -9 3 -20 -8 -30 -33 -19 -46 -6
-103 32 -139 43 -40 120 -38 158 4 16 18 15 21 -25 61 -48 48 -43 64 20 58 23
-2 41 0 41 4 0 16 -87 13 -106 -3 -8 -7 -15 -6 -20 2 -7 12 30 52 58 62 7 2
10 7 7 11 -3 3 -24 -7 -47 -24 -23 -16 -44 -30 -46 -30 -3 0 -7 15 -9 33 -4
28 -5 30 -11 10z m4 -68 c-7 -9 -15 -13 -17 -11 -7 7 7 26 19 26 6 0 6 -6 -2
-15z m27 -41 c-13 -24 -17 -26 -22 -12 -9 22 13 64 27 50 6 -6 5 -19 -5 -38z
m67 -17 c23 -32 18 -40 -19 -31 -29 7 -40 25 -31 50 8 21 25 14 50 -19z"/>
<path d="M4910 3062 l0 -59 32 -1 c39 -1 58 13 58 43 0 29 -24 49 -50 42 -15
-4 -20 0 -20 14 0 10 -4 19 -10 19 -6 0 -10 -26 -10 -58z m74 -5 c8 -12 7 -21
-6 -33 -22 -22 -48 -11 -48 20 0 37 34 45 54 13z"/>
<path d="M868 3091 c-15 -21 -12 -111 3 -111 5 0 9 18 9 40 0 25 5 40 13 40 9
0 9 2 -1 8 -7 5 -10 16 -6 25 8 23 -2 21 -18 -2z"/>
<path d="M1495 3100 c-3 -5 -1 -10 4 -10 6 0 11 5 11 10 0 6 -2 10 -4 10 -3 0
-8 -4 -11 -10z"/>
<path d="M1543 3045 c0 -38 2 -53 4 -32 2 20 2 52 0 70 -2 17 -4 1 -4 -38z"/>
<path d="M1650 3085 c0 -22 -3 -24 -30 -19 -25 5 -31 2 -41 -19 -18 -39 3 -68
47 -65 l34 2 0 63 c0 35 -2 63 -5 63 -3 0 -5 -11 -5 -25z m-6 -47 c13 -22 -14
-54 -38 -45 -16 6 -22 48 -9 61 11 11 35 3 47 -16z"/>
<path d="M670 3044 c-11 -31 -18 -59 -16 -62 3 -3 8 3 12 12 8 21 64 22 64 1
0 -8 5 -15 11 -15 7 0 8 7 4 18 -4 9 -14 36 -22 60 -8 23 -19 42 -23 42 -5 0
-18 -25 -30 -56z m40 17 c0 -5 3 -16 6 -25 4 -12 0 -16 -15 -16 -22 0 -25 8
-15 34 7 17 24 22 24 7z"/>
<path d="M770 3040 c0 -33 4 -60 10 -60 6 0 10 27 10 60 0 33 -4 60 -10 60 -6
0 -10 -27 -10 -60z"/>
<path d="M1280 3042 l0 -59 32 -1 c39 -1 58 13 58 43 0 29 -24 49 -50 42 -15
-4 -20 0 -20 14 0 10 -4 19 -10 19 -6 0 -10 -26 -10 -58z m74 -5 c8 -12 7 -21
-6 -33 -22 -22 -48 -11 -48 20 0 37 34 45 54 13z"/>
<path d="M4772 3040 c-1 -31 -7 -61 -14 -68 -9 -9 -9 -12 0 -12 19 0 24 21 19
81 l-3 54 -2 -55z"/>
<path d="M4824 3082 c-32 -22 -18 -82 19 -82 29 0 47 17 47 45 0 36 -37 57
-66 37z m50 -25 c8 -12 7 -21 -6 -33 -22 -22 -48 -11 -48 20 0 37 34 45 54 13z"/>
<path d="M5038 3083 c27 -5 27 -8 2 -40 -28 -35 -25 -43 13 -42 23 1 26 3 10
6 -28 5 -28 8 -3 40 28 35 25 43 -12 42 -24 -1 -27 -3 -10 -6z"/>
<path d="M5100 3080 c0 -6 7 -24 15 -40 9 -17 13 -42 10 -57 -3 -16 9 1 26 36
16 35 28 66 24 69 -3 3 -11 -9 -17 -26 -15 -40 -23 -40 -37 -2 -10 30 -21 40
-21 20z"/>
<path d="M922 3058 c-15 -15 -15 -51 0 -66 20 -20 58 -14 67 11 18 49 -32 90
-67 55z m42 -4 c21 -8 21 -53 0 -61 -8 -3 -22 1 -31 9 -12 12 -13 20 -4 37 13
23 13 23 35 15z"/>
<path d="M1022 3020 c1 -33 2 -37 5 -15 2 17 14 37 26 47 l21 16 -27 -1 c-25
-2 -27 -5 -25 -47z"/>
<path d="M1080 3023 c0 -53 18 -57 22 -5 2 25 8 37 18 37 10 0 16 -12 18 -37
2 -21 7 -38 12 -38 5 0 10 17 12 38 4 52 31 50 39 -3 l7 -40 -2 45 -1 45 -62
1 -63 1 0 -44z"/>
<path d="M1390 3038 c0 -46 11 -59 48 -56 31 2 32 4 32 45 0 53 -18 57 -22 6
-2 -27 -8 -39 -20 -41 -14 -3 -18 4 -18 32 0 19 -4 38 -10 41 -6 4 -10 -7 -10
-27z"/>
<path d="M1490 3025 c0 -25 5 -45 10 -45 6 0 10 20 10 45 0 25 -4 45 -10 45
-5 0 -10 -20 -10 -45z"/>
<path d="M1689 3049 c-17 -34 4 -71 38 -67 14 2 29 10 31 18 5 13 3 13 -11 1
-18 -14 -47 -9 -47 9 0 5 16 10 35 10 29 0 33 3 28 18 -14 37 -56 44 -74 11z
m59 -6 c2 -8 -6 -13 -22 -13 -25 0 -33 10 -19 24 10 10 36 3 41 -11z"/>
<path d="M1780 3024 c0 -24 5 -44 10 -44 6 0 10 16 10 35 0 24 5 35 15 35 8 0
15 4 15 9 0 5 -11 9 -25 9 -23 0 -25 -4 -25 -44z"/>
<path d="M359 3023 c-10 -32 -10 -38 7 -50 36 -26 127 -11 108 18 -5 8 -7 22
-6 31 3 14 -4 16 -37 13 -31 -3 -39 -1 -34 11 3 8 -1 14 -10 14 -9 0 -21 -16
-28 -37z"/>
<path d="M16379 2963 c-12 -16 -12 -17 1 -6 8 6 26 13 40 16 l25 4 -26 2 c-15
0 -33 -7 -40 -16z"/>
<path d="M16978 2924 c-1 -31 0 -58 5 -61 4 -2 7 23 7 56 0 76 -7 79 -12 5z"/>
<path d="M16747 2952 c-2 -4 0 -23 4 -42 l6 -35 2 32 c0 17 6 33 13 35 8 3 6
7 -5 11 -9 3 -18 3 -20 -1z"/>
<path d="M16562 2938 c-24 -24 -13 -38 26 -36 36 1 36 1 5 5 -38 5 -43 20 -10
33 13 5 16 9 7 9 -9 1 -21 -4 -28 -11z"/>
<path d="M16659 2933 c-13 -16 -12 -17 3 -4 10 7 25 11 33 7 9 -3 13 -2 10 4
-10 15 -31 12 -46 -7z"/>
<path d="M16822 2938 c-24 -24 -13 -38 26 -36 36 1 36 1 5 5 -38 5 -43 20 -10
33 13 5 16 9 7 9 -9 1 -21 -4 -28 -11z"/>
<path d="M16920 2935 c-7 -9 -10 -18 -6 -22 3 -3 6 -1 6 6 0 6 10 16 23 21 15
6 17 9 6 9 -9 1 -22 -6 -29 -14z"/>
<path d="M16362 2920 c0 -14 2 -19 5 -12 2 6 2 18 0 25 -3 6 -5 1 -5 -13z"/>
<path d="M16493 2900 c0 -25 2 -35 4 -22 2 12 2 32 0 45 -2 12 -4 2 -4 -23z"/>
<path d="M17075 2929 c-4 -6 -5 -12 -2 -15 2 -3 7 2 10 11 7 17 1 20 -8 4z"/>
<path d="M16685 2911 c-34 -7 -44 -44 -12 -47 12 -1 13 -1 2 3 -26 8 -17 33
11 33 19 0 25 -4 21 -15 -4 -8 -2 -17 3 -20 6 -4 10 7 10 24 0 17 -1 30 -2 30
-2 -1 -16 -4 -33 -8z"/>
<path d="M17141 2904 c0 -11 3 -14 6 -6 3 7 2 16 -1 19 -3 4 -6 -2 -5 -13z"/>
<path d="M16910 2894 c0 -17 27 -37 42 -31 8 4 7 6 -4 6 -9 1 -22 9 -27 19 -6
9 -11 12 -11 6z"/>
<path d="M16379 2878 c7 -10 24 -18 36 -18 12 0 29 8 36 18 11 14 11 15 -1 5
-8 -7 -23 -13 -35 -13 -12 0 -27 6 -35 13 -12 10 -12 9 -1 -5z"/>
<path d="M16562 2874 c9 -9 21 -15 27 -13 6 2 -2 10 -17 17 -25 11 -25 11 -10
-4z"/>
<path d="M16822 2874 c9 -9 21 -15 27 -13 6 2 -2 10 -17 17 -25 11 -25 11 -10
-4z"/>
<path d="M17070 2881 c0 -15 49 -26 62 -13 8 8 5 9 -11 5 -11 -3 -28 0 -36 7
-10 8 -15 9 -15 1z"/>
<path d="M17190 2881 c0 -5 5 -13 10 -16 6 -3 10 -2 10 4 0 5 -4 13 -10 16 -5
3 -10 2 -10 -4z"/>
<path d="M4772 2788 c1 -57 2 -59 5 -15 3 30 8 45 15 41 6 -4 6 1 -1 15 -7 11
-14 21 -16 21 -3 0 -4 -28 -3 -62z"/>
<path d="M4866 2833 c-6 -14 -5 -15 5 -6 7 7 10 15 7 18 -3 3 -9 -2 -12 -12z"/>
<path d="M5168 2803 c5 -76 10 -83 11 -15 0 34 -2 62 -7 62 -4 0 -6 -21 -4
-47z"/>
<path d="M5247 2843 c12 -2 24 -11 26 -19 3 -9 4 -8 3 3 -1 12 -10 18 -26 19
-21 1 -21 0 -3 -3z"/>
<path d="M5380 2790 c0 -35 3 -61 6 -58 7 8 7 108 0 115 -3 4 -6 -22 -6 -57z"/>
<path d="M5597 2844 c12 -3 24 -14 26 -25 4 -15 4 -14 3 3 -1 17 -8 23 -26 25
-21 1 -21 0 -3 -3z"/>
<path d="M5672 2838 c-7 -7 -12 -19 -11 -27 0 -10 4 -7 9 7 6 15 18 22 35 22
17 0 29 -7 35 -22 5 -14 9 -17 9 -7 1 21 -19 39 -44 39 -12 0 -26 -5 -33 -12z"/>
<path d="M5785 2839 c-11 -16 -1 -19 13 -3 7 8 8 14 3 14 -5 0 -13 -5 -16 -11z"/>
<path d="M5903 2843 c9 -2 25 -2 35 0 9 3 1 5 -18 5 -19 0 -27 -2 -17 -5z"/>
<path d="M5210 2823 c0 -6 5 -15 10 -18 8 -5 7 -11 0 -21 -7 -7 -10 -19 -7
-26 3 -8 6 -6 6 5 1 10 11 22 24 27 16 6 17 9 5 9 -9 1 -22 9 -27 19 -6 9 -11
12 -11 5z"/>
<path d="M5320 2791 c0 -23 2 -41 4 -41 8 0 12 71 4 76 -4 3 -8 -13 -8 -35z"/>
<path d="M5840 2815 c0 -8 -14 -30 -31 -50 l-31 -35 38 1 c31 2 33 3 11 6
l-28 4 26 30 c22 27 33 59 20 59 -3 0 -5 -7 -5 -15z"/>
<path d="M5410 2816 c0 -2 9 -6 20 -9 11 -3 18 -1 14 4 -5 9 -34 13 -34 5z"/>
<path d="M4972 2782 c-2 -24 -8 -35 -24 -42 -13 -5 -16 -9 -8 -9 29 -1 42 15
37 50 l-4 34 -1 -33z"/>
<path d="M5900 2806 c0 -2 11 -6 25 -8 13 -3 22 -1 19 3 -5 9 -44 13 -44 5z"/>
<path d="M5585 2760 l-29 -30 40 1 c31 2 34 3 10 6 l-28 5 23 24 c12 13 20 24
18 24 -3 0 -18 -13 -34 -30z"/>
<path d="M4817 2765 c3 -8 9 -12 14 -9 12 7 11 11 -5 17 -10 4 -13 1 -9 -8z"/>
<path d="M5030 2751 c0 -5 5 -13 10 -16 6 -3 10 -2 10 4 0 5 -4 13 -10 16 -5
3 -10 2 -10 -4z"/>
<path d="M5889 2748 c14 -19 46 -24 55 -9 4 5 -3 7 -14 4 -11 -3 -28 1 -38 8
-15 13 -16 12 -3 -3z"/>
<path d="M5250 2740 c-23 -7 -23 -8 -3 -9 12 -1 25 4 28 9 3 6 5 10 3 9 -2 -1
-14 -5 -28 -9z"/>
<path d="M5698 2733 c7 -3 16 -2 19 1 4 3 -2 6 -13 5 -11 0 -14 -3 -6 -6z"/>
<path d="M622 2588 l1 -63 6 50 6 50 14 -33 c20 -47 29 -48 48 -6 l18 37 6
-49 6 -49 1 63 c1 34 0 62 -3 62 -2 0 -14 -18 -25 -40 -11 -22 -22 -40 -25
-40 -3 0 -14 18 -25 40 -11 22 -23 40 -25 40 -3 0 -4 -28 -3 -62z"/>
<path d="M770 2606 c-28 -35 11 -93 48 -70 35 22 22 84 -18 84 -10 0 -23 -7
-30 -14z m55 -31 c0 -25 -4 -30 -25 -30 -28 0 -39 27 -19 51 20 24 44 13 44
-21z"/>
<path d="M878 2613 c-14 -3 -18 -14 -17 -46 l1 -42 8 35 c5 18 16 40 26 47 18
13 14 15 -18 6z"/>
<path d="M944 2612 c-6 -4 -13 -15 -17 -24 -5 -15 0 -18 33 -18 41 0 52 14 28
38 -14 14 -28 15 -44 4z m44 -19 c2 -8 -6 -13 -22 -13 -25 0 -33 10 -19 24 10
10 36 3 41 -11z"/>
<path d="M330 2590 c0 -5 7 -10 15 -10 8 0 15 5 15 10 0 6 -7 10 -15 10 -8 0
-15 -4 -15 -10z"/>
<path d="M390 2590 c0 -5 5 -10 10 -10 6 0 10 5 10 10 0 6 -4 10 -10 10 -5 0
-10 -4 -10 -10z"/>
<path d="M440 2590 c0 -5 7 -10 15 -10 8 0 15 5 15 10 0 6 -7 10 -15 10 -8 0
-15 -4 -15 -10z"/>
<path d="M932 2550 c6 -19 47 -25 62 -10 8 9 6 11 -12 5 -14 -4 -29 -1 -39 7
-14 11 -15 11 -11 -2z"/>
<path d="M17618 2346 c-135 -36 -200 -183 -138 -311 70 -145 294 -159 378 -23
107 173 -46 386 -240 334z m12 -181 c7 -25 16 -47 20 -50 3 -2 14 18 24 46 10
27 24 49 32 49 11 0 8 -15 -11 -67 -14 -37 -28 -69 -30 -71 -13 -13 -34 13
-53 66 -26 70 -26 72 -8 72 7 0 19 -20 26 -45z m120 -25 c0 -40 -4 -70 -10
-70 -6 0 -10 30 -10 70 0 40 4 70 10 70 6 0 10 -30 10 -70z"/>
<path d="M4445 2325 c-28 -27 -33 -71 -10 -101 8 -10 15 -29 15 -42 0 -21 1
-22 16 -8 8 9 25 16 37 16 47 1 85 59 67 102 -5 13 -9 17 -9 11 -1 -18 -31
-16 -31 2 0 8 8 15 18 15 15 1 15 2 -2 15 -30 23 -74 18 -101 -10z"/>
<path d="M4885 2340 c-3 -5 -1 -10 4 -10 6 0 11 5 11 10 0 6 -2 10 -4 10 -3 0
-8 -4 -11 -10z"/>
<path d="M5000 2325 c0 -22 -3 -24 -30 -19 -25 5 -31 2 -41 -19 -18 -39 3 -68
47 -65 l34 2 0 63 c0 35 -2 63 -5 63 -3 0 -5 -11 -5 -25z m-6 -47 c13 -22 -14
-54 -38 -45 -16 6 -22 48 -9 61 11 11 35 3 47 -16z"/>
<path d="M5483 2285 c0 -38 2 -53 4 -32 2 20 2 52 0 70 -2 17 -4 1 -4 -38z"/>
<path d="M5523 2285 c0 -38 2 -53 4 -32 2 20 2 52 0 70 -2 17 -4 1 -4 -38z"/>
<path d="M5560 2340 c0 -5 5 -10 11 -10 5 0 7 5 4 10 -3 6 -8 10 -11 10 -2 0
-4 -4 -4 -10z"/>
<path d="M4765 2323 c4 -10 14 -37 22 -61 8 -24 20 -41 25 -40 12 4 49 99 45
113 -2 6 -13 -15 -24 -45 l-21 -55 -11 28 c-6 15 -14 39 -17 52 -3 14 -11 25
-16 25 -6 0 -7 -8 -3 -17z"/>
<path d="M4887 2303 c-11 -10 -8 -83 3 -83 6 0 10 20 10 45 0 46 -2 50 -13 38z"/>
<path d="M5039 2289 c-17 -34 4 -71 38 -67 14 2 29 10 31 18 5 13 3 13 -11 1
-18 -14 -47 -9 -47 9 0 5 14 10 30 10 23 0 30 5 30 19 0 35 -53 42 -71 10z
m59 -6 c2 -8 -6 -13 -22 -13 -25 0 -33 10 -19 24 10 10 36 3 41 -11z"/>
<path d="M5146 2295 c-19 -19 -20 -29 -6 -56 13 -23 53 -25 70 -3 10 11 11 23
4 42 -11 32 -44 40 -68 17z m49 -30 c0 -23 -4 -30 -20 -30 -21 0 -31 25 -21
51 11 28 41 12 41 -21z"/>
<path d="M5296 2295 c-19 -20 -20 -35 -3 -59 15 -21 58 -18 65 4 5 13 3 13
-11 1 -23 -19 -47 -7 -47 24 0 31 24 43 47 24 14 -12 16 -12 11 1 -7 21 -43
24 -62 5z"/>
<path d="M5397 2303 c-14 -13 -7 -25 8 -13 8 6 19 9 25 5 18 -11 11 -25 -14
-25 -26 0 -39 -19 -27 -39 4 -6 22 -10 39 -9 29 2 32 6 32 33 0 17 -5 36 -12
43 -13 13 -41 16 -51 5z m41 -55 c-7 -19 -38 -22 -38 -4 0 10 9 16 21 16 12 0
19 -5 17 -12z"/>
<path d="M5563 2265 c0 -27 2 -38 4 -22 2 15 2 37 0 50 -2 12 -4 0 -4 -28z"/>
<path d="M5601 2260 c1 -44 1 -44 9 -12 15 64 50 68 50 6 0 -19 5 -34 10 -34
14 0 12 66 -2 78 -7 6 -25 10 -40 9 -26 -2 -28 -5 -27 -47z"/>
<path d="M5712 2298 c-5 -7 -9 -35 -9 -63 2 -49 3 -50 32 -50 23 0 31 5 33 22
3 17 -3 24 -25 30 l-28 7 24 6 c16 3 27 15 32 33 7 25 5 27 -21 27 -15 0 -32
-6 -38 -12z m43 -18 c0 -8 -8 -16 -17 -18 -13 -2 -18 3 -18 18 0 15 5 20 18
18 9 -2 17 -10 17 -18z m5 -71 c0 -15 -30 -23 -42 -11 -6 6 -7 15 -4 20 7 12
46 4 46 -9z"/>
<path d="M5857 2303 c-14 -13 -7 -25 8 -13 8 6 19 9 25 5 18 -11 11 -25 -14
-25 -26 0 -39 -19 -27 -39 4 -6 22 -10 39 -9 29 2 32 6 32 33 0 17 -5 36 -12
43 -13 13 -41 16 -51 5z m41 -55 c-7 -19 -38 -22 -38 -4 0 10 9 16 21 16 12 0
19 -5 17 -12z"/>
<path d="M5941 2240 c1 -44 3 -57 8 -40 5 19 13 24 30 22 29 -4 51 14 51 43 0
30 -20 45 -58 42 l-32 -2 1 -65z m68 41 c13 -24 -9 -57 -33 -48 -16 6 -22 47
-9 60 12 13 32 7 42 -12z"/>
<path d="M6051 2240 c1 -44 3 -57 8 -40 5 19 13 24 30 22 29 -4 51 14 51 43 0
30 -20 45 -58 42 l-32 -2 1 -65z m68 41 c13 -24 -9 -57 -33 -48 -16 6 -22 47
-9 60 12 13 32 7 42 -12z"/>
<path d="M16379 2183 c-12 -16 -12 -17 1 -6 8 6 26 13 40 16 l25 4 -26 2 c-15
0 -33 -7 -40 -16z"/>
<path d="M16978 2144 c-1 -31 0 -58 5 -61 4 -2 7 23 7 56 0 76 -7 79 -12 5z"/>
<path d="M16747 2172 c-2 -4 0 -23 4 -42 l6 -35 2 32 c0 17 6 33 13 35 8 3 6
7 -5 11 -9 3 -18 3 -20 -1z"/>
<path d="M16562 2158 c-24 -24 -13 -38 26 -36 36 1 36 1 5 5 -38 5 -43 20 -10
33 13 5 16 9 7 9 -9 1 -21 -4 -28 -11z"/>
<path d="M16659 2153 c-13 -16 -12 -17 3 -4 10 7 25 11 33 7 9 -3 13 -2 10 4
-10 15 -31 12 -46 -7z"/>
<path d="M16822 2158 c-24 -24 -13 -38 26 -36 36 1 36 1 5 5 -38 5 -43 20 -10
33 13 5 16 9 7 9 -9 1 -21 -4 -28 -11z"/>
<path d="M16920 2155 c-7 -9 -10 -18 -6 -22 3 -3 6 -1 6 6 0 6 10 16 23 21 15
6 17 9 6 9 -9 1 -22 -6 -29 -14z"/>
<path d="M16362 2140 c0 -14 2 -19 5 -12 2 6 2 18 0 25 -3 6 -5 1 -5 -13z"/>
<path d="M16493 2120 c0 -25 2 -35 4 -22 2 12 2 32 0 45 -2 12 -4 2 -4 -23z"/>
<path d="M17075 2149 c-4 -6 -5 -12 -2 -15 2 -3 7 2 10 11 7 17 1 20 -8 4z"/>
<path d="M16685 2131 c-34 -7 -44 -44 -12 -47 12 -1 13 -1 2 3 -26 8 -17 33
11 33 19 0 25 -4 21 -15 -4 -8 -2 -17 3 -20 6 -4 10 7 10 24 0 17 -1 30 -2 30
-2 -1 -16 -4 -33 -8z"/>
<path d="M17141 2124 c0 -11 3 -14 6 -6 3 7 2 16 -1 19 -3 4 -6 -2 -5 -13z"/>
<path d="M16910 2114 c0 -17 27 -37 42 -31 8 4 7 6 -4 6 -9 1 -22 9 -27 19 -6
9 -11 12 -11 6z"/>
<path d="M16379 2098 c7 -10 24 -18 36 -18 12 0 29 8 36 18 11 14 11 15 -1 5
-8 -7 -23 -13 -35 -13 -12 0 -27 6 -35 13 -12 10 -12 9 -1 -5z"/>
<path d="M16562 2094 c9 -9 21 -15 27 -13 6 2 -2 10 -17 17 -25 11 -25 11 -10
-4z"/>
<path d="M16822 2094 c9 -9 21 -15 27 -13 6 2 -2 10 -17 17 -25 11 -25 11 -10
-4z"/>
<path d="M17070 2101 c0 -15 49 -26 62 -13 8 8 5 9 -11 5 -11 -3 -28 0 -36 7
-10 8 -15 9 -15 1z"/>
<path d="M17190 2101 c0 -5 5 -13 10 -16 6 -3 10 -2 10 4 0 5 -4 13 -10 16 -5
3 -10 2 -10 -4z"/>
<path d="M4772 2018 c1 -57 2 -59 5 -15 3 30 8 45 15 41 6 -4 6 1 -1 15 -7 11
-14 21 -16 21 -3 0 -4 -28 -3 -62z"/>
<path d="M4866 2063 c-6 -14 -5 -15 5 -6 7 7 10 15 7 18 -3 3 -9 -2 -12 -12z"/>
<path d="M5168 2033 c5 -76 10 -83 11 -15 0 34 -2 62 -7 62 -4 0 -6 -21 -4
-47z"/>
<path d="M5218 2073 c12 -2 32 -2 45 0 12 2 2 4 -23 4 -25 0 -35 -2 -22 -4z"/>
<path d="M5373 2020 c0 -36 2 -50 4 -32 2 17 2 47 0 65 -2 17 -4 3 -4 -33z"/>
<path d="M5555 2069 c-11 -16 -1 -19 13 -3 7 8 8 14 3 14 -5 0 -13 -5 -16 -11z"/>
<path d="M5662 2068 c-7 -7 -12 -16 -12 -22 0 -5 6 -2 13 9 10 12 22 16 40 13
15 -3 24 -1 21 3 -8 13 -48 11 -62 -3z"/>
<path d="M5777 2073 c-3 -5 8 -8 23 -8 15 0 26 3 23 8 -2 4 -13 7 -23 7 -10 0
-21 -3 -23 -7z"/>
<path d="M5893 2073 c9 -2 23 -2 30 0 6 3 -1 5 -18 5 -16 0 -22 -2 -12 -5z"/>
<path d="M5308 2059 c-8 -25 7 -92 22 -96 12 -4 12 -2 2 5 -8 5 -12 25 -11 50
3 41 -5 65 -13 41z"/>
<path d="M5610 2045 c0 -8 -14 -30 -31 -50 l-31 -35 38 1 c31 2 33 3 11 6
l-28 4 26 30 c22 27 33 59 20 59 -3 0 -5 -7 -5 -15z"/>
<path d="M5872 2040 c0 -14 2 -19 5 -12 2 6 2 18 0 25 -3 6 -5 1 -5 -13z"/>
<path d="M5732 2020 c0 -19 2 -27 5 -17 2 9 2 25 0 35 -3 9 -5 1 -5 -18z"/>
<path d="M4972 2012 c-2 -24 -8 -35 -24 -42 -13 -5 -16 -9 -8 -9 29 -1 42 15
37 50 l-4 34 -1 -33z"/>
<path d="M5905 2033 c11 -3 24 -10 28 -17 6 -7 7 -6 4 4 -2 8 -14 16 -28 17
-19 1 -20 1 -4 -4z"/>
<path d="M5433 1995 c0 -22 2 -30 4 -17 2 12 2 30 0 40 -3 9 -5 -1 -4 -23z"/>
<path d="M4817 1995 c3 -8 9 -12 14 -9 12 7 11 11 -5 17 -10 4 -13 1 -9 -8z"/>
<path d="M5650 1994 c0 -18 27 -36 47 -31 14 4 14 5 -4 6 -12 0 -27 9 -32 19
-6 9 -11 12 -11 6z"/>
<path d="M5030 1981 c0 -5 5 -13 10 -16 6 -3 10 -2 10 4 0 5 -4 13 -10 16 -5
3 -10 2 -10 -4z"/>
<path d="M5226 1973 c-6 -14 -5 -15 5 -6 7 7 10 15 7 18 -3 3 -9 -2 -12 -12z"/>
<path d="M5770 1968 c0 -4 16 -8 35 -8 19 0 35 2 35 4 0 2 -16 6 -35 8 -19 2
-35 0 -35 -4z"/>
<path d="M5898 1963 c7 -3 16 -2 19 1 4 3 -2 6 -13 5 -11 0 -14 -3 -6 -6z"/>
<path d="M17618 1576 c-135 -36 -200 -183 -138 -311 70 -145 294 -159 378 -23
107 173 -46 386 -240 334z m12 -191 c7 -25 16 -47 20 -50 3 -2 14 18 24 46 10
27 24 49 32 49 11 0 8 -15 -11 -67 -14 -37 -28 -69 -30 -71 -13 -13 -34 13
-53 66 -26 70 -26 72 -8 72 7 0 19 -20 26 -45z m120 -25 c0 -40 -4 -70 -10
-70 -6 0 -10 30 -10 70 0 40 4 70 10 70 6 0 10 -30 10 -70z"/>
<path d="M5622 1520 l-2 -65 32 -2 c38 -3 58 12 58 42 0 30 -24 49 -54 41 -21
-5 -25 -2 -29 21 -2 16 -5 -1 -5 -37z m67 -9 c13 -24 -9 -57 -33 -48 -16 6
-22 47 -9 60 12 13 32 7 42 -12z"/>
<path d="M4782 1510 c-11 -33 -16 -60 -11 -60 5 0 9 7 9 15 0 21 56 20 64 -1
4 -9 9 -15 11 -12 8 7 -30 111 -42 115 -6 2 -20 -23 -31 -57z m47 -7 c1 -7 -8
-13 -19 -13 -23 0 -23 0 -9 37 10 26 12 27 19 8 5 -11 9 -26 9 -32z"/>
<path d="M4880 1510 c0 -33 4 -60 10 -60 6 0 10 27 10 60 0 33 -4 60 -10 60
-6 0 -10 -27 -10 -60z"/>
<path d="M5870 1510 c0 -33 4 -60 10 -60 6 0 10 27 10 60 0 33 -4 60 -10 60
-6 0 -10 -27 -10 -60z"/>
<path d="M5980 1551 c0 -14 -5 -18 -20 -14 -26 7 -50 -13 -50 -42 0 -30 19
-44 58 -43 l32 1 0 59 c0 32 -4 58 -10 58 -5 0 -10 -9 -10 -19z m-12 -30 c20
-12 11 -56 -12 -56 -27 0 -43 29 -27 49 15 18 21 19 39 7z"/>
<path d="M4971 1490 c1 -44 1 -44 9 -12 4 18 16 39 26 47 17 12 17 13 -9 12
-25 -2 -27 -5 -26 -47z"/>
<path d="M5042 1528 c-27 -27 -7 -78 29 -78 10 0 20 4 23 9 3 4 -5 6 -18 4
-15 -3 -25 1 -29 11 -5 13 1 16 28 16 22 0 35 5 35 13 0 18 -21 37 -40 37 -9
0 -21 -5 -28 -12z m48 -13 c11 -13 8 -15 -20 -15 -28 0 -31 2 -20 15 7 8 16
15 20 15 4 0 13 -7 20 -15z"/>
<path d="M5134 1526 c-8 -21 3 -36 27 -36 10 0 19 -7 19 -15 0 -18 -21 -20
-39 -2 -11 10 -13 9 -9 -3 7 -22 62 -20 66 3 2 9 -4 19 -12 22 -9 3 -24 7 -33
10 -12 4 -13 9 -5 17 8 8 16 8 28 -3 15 -12 17 -12 12 1 -6 21 -47 25 -54 6z"/>
<path d="M5224 1500 c1 -44 2 -45 34 -46 32 -1 32 -1 31 45 l-2 46 -6 -40 c-5
-31 -10 -40 -26 -40 -16 0 -21 9 -26 40 l-7 40 2 -45z"/>
<path d="M5322 1491 c1 -35 2 -39 5 -14 5 35 29 62 43 47 5 -5 10 -25 13 -44
l4 -35 1 36 c1 24 8 39 18 43 22 8 26 4 35 -41 l7 -38 -1 45 -2 45 -62 1 -63
1 2 -46z"/>
<path d="M5479 1519 c-17 -34 4 -71 38 -67 14 2 29 10 31 18 5 13 3 13 -11 1
-18 -14 -47 -9 -47 9 0 5 14 10 30 10 23 0 30 5 30 19 0 35 -53 42 -71 10z
m59 -6 c2 -8 -6 -13 -22 -13 -25 0 -33 10 -19 24 10 10 36 3 41 -11z"/>
<path d="M5733 1500 c2 -45 2 -45 40 -47 l37 -1 0 44 c0 24 -4 44 -10 44 -5 0
-10 -16 -10 -35 0 -23 -6 -38 -15 -42 -21 -7 -27 0 -36 44 l-7 38 1 -45z"/>
<path d="M5830 1495 c0 -25 5 -45 10 -45 6 0 10 20 10 45 0 25 -4 45 -10 45
-5 0 -10 -20 -10 -45z"/>
<path d="M6032 1528 c-27 -27 -7 -78 29 -78 10 0 20 4 23 9 3 4 -5 6 -18 4
-15 -3 -25 1 -29 11 -5 13 1 16 28 16 22 0 35 5 35 13 0 18 -21 37 -40 37 -9
0 -21 -5 -28 -12z m48 -13 c11 -13 8 -15 -20 -15 -28 0 -31 2 -20 15 7 8 16
15 20 15 4 0 13 -7 20 -15z"/>
<path d="M6121 1490 c1 -44 1 -44 9 -12 4 18 16 39 26 47 17 12 17 13 -9 12
-25 -2 -27 -5 -26 -47z"/>
<path d="M16379 1413 c-12 -16 -12 -17 1 -6 8 6 26 13 40 16 l25 4 -26 2 c-15
0 -33 -7 -40 -16z"/>
<path d="M16978 1374 c-1 -31 0 -58 5 -61 4 -2 7 23 7 56 0 76 -7 79 -12 5z"/>
<path d="M16747 1402 c-2 -4 0 -23 4 -42 l6 -35 2 32 c0 17 6 33 13 35 8 3 6
7 -5 11 -9 3 -18 3 -20 -1z"/>
<path d="M16562 1388 c-24 -24 -13 -38 26 -36 36 1 36 1 5 5 -38 5 -43 20 -10
33 13 5 16 9 7 9 -9 1 -21 -4 -28 -11z"/>
<path d="M16659 1383 c-13 -16 -12 -17 3 -4 10 7 25 11 33 7 9 -3 13 -2 10 4
-10 15 -31 12 -46 -7z"/>
<path d="M16822 1388 c-24 -24 -13 -38 26 -36 36 1 36 1 5 5 -38 5 -43 20 -10
33 13 5 16 9 7 9 -9 1 -21 -4 -28 -11z"/>
<path d="M16920 1385 c-7 -9 -10 -18 -6 -22 3 -3 6 -1 6 6 0 6 10 16 23 21 15
6 17 9 6 9 -9 1 -22 -6 -29 -14z"/>
<path d="M16362 1370 c0 -14 2 -19 5 -12 2 6 2 18 0 25 -3 6 -5 1 -5 -13z"/>
<path d="M16493 1350 c0 -25 2 -35 4 -22 2 12 2 32 0 45 -2 12 -4 2 -4 -23z"/>
<path d="M17075 1379 c-4 -6 -5 -12 -2 -15 2 -3 7 2 10 11 7 17 1 20 -8 4z"/>
<path d="M16685 1361 c-34 -7 -44 -44 -12 -47 12 -1 13 -1 2 3 -26 8 -17 33
11 33 19 0 25 -4 21 -15 -4 -8 -2 -17 3 -20 6 -4 10 7 10 24 0 17 -1 30 -2 30
-2 -1 -16 -4 -33 -8z"/>
<path d="M17141 1354 c0 -11 3 -14 6 -6 3 7 2 16 -1 19 -3 4 -6 -2 -5 -13z"/>
<path d="M16910 1344 c0 -17 27 -37 42 -31 8 4 7 6 -4 6 -9 1 -22 9 -27 19 -6
9 -11 12 -11 6z"/>
<path d="M16379 1328 c7 -10 24 -18 36 -18 12 0 29 8 36 18 11 14 11 15 -1 5
-8 -7 -23 -13 -35 -13 -12 0 -27 6 -35 13 -12 10 -12 9 -1 -5z"/>
<path d="M16562 1324 c9 -9 21 -15 27 -13 6 2 -2 10 -17 17 -25 11 -25 11 -10
-4z"/>
<path d="M16822 1324 c9 -9 21 -15 27 -13 6 2 -2 10 -17 17 -25 11 -25 11 -10
-4z"/>
<path d="M17070 1331 c0 -15 49 -26 62 -13 8 8 5 9 -11 5 -11 -3 -28 0 -36 7
-10 8 -15 9 -15 1z"/>
<path d="M17190 1331 c0 -5 5 -13 10 -16 6 -3 10 -2 10 4 0 5 -4 13 -10 16 -5
3 -10 2 -10 -4z"/>
<path d="M4772 1238 c1 -57 2 -59 5 -15 3 30 8 45 15 41 6 -4 6 1 -1 15 -7 11
-14 21 -16 21 -3 0 -4 -28 -3 -62z"/>
<path d="M4866 1283 c-6 -14 -5 -15 5 -6 7 7 10 15 7 18 -3 3 -9 -2 -12 -12z"/>
<path d="M5168 1253 c5 -76 10 -83 11 -15 0 34 -2 62 -7 62 -4 0 -6 -21 -4
-47z"/>
<path d="M5218 1293 c12 -2 32 -2 45 0 12 2 2 4 -23 4 -25 0 -35 -2 -22 -4z"/>
<path d="M5373 1240 c0 -36 2 -50 4 -32 2 17 2 47 0 65 -2 17 -4 3 -4 -33z"/>
<path d="M5555 1289 c-11 -16 -1 -19 13 -3 7 8 8 14 3 14 -5 0 -13 -5 -16 -11z"/>
<path d="M5662 1288 c-7 -7 -12 -16 -12 -22 0 -5 6 -2 13 9 10 12 22 16 40 13
15 -3 24 -1 21 3 -8 13 -48 11 -62 -3z"/>
<path d="M5777 1293 c-3 -5 8 -8 23 -8 15 0 26 3 23 8 -2 4 -13 7 -23 7 -10 0
-21 -3 -23 -7z"/>
<path d="M5893 1293 c9 -2 23 -2 30 0 6 3 -1 5 -18 5 -16 0 -22 -2 -12 -5z"/>
<path d="M5308 1279 c-8 -25 7 -92 22 -96 12 -4 12 -2 2 5 -8 5 -12 25 -11 50
3 41 -5 65 -13 41z"/>
<path d="M5610 1265 c0 -8 -14 -30 -31 -50 l-31 -35 38 1 c31 2 33 3 11 6
l-28 4 26 30 c22 27 33 59 20 59 -3 0 -5 -7 -5 -15z"/>
<path d="M5872 1260 c0 -14 2 -19 5 -12 2 6 2 18 0 25 -3 6 -5 1 -5 -13z"/>
<path d="M5732 1240 c0 -19 2 -27 5 -17 2 9 2 25 0 35 -3 9 -5 1 -5 -18z"/>
<path d="M4972 1232 c-2 -24 -8 -35 -24 -42 -13 -5 -16 -9 -8 -9 29 -1 42 15
37 50 l-4 34 -1 -33z"/>
<path d="M5905 1253 c11 -3 24 -10 28 -17 6 -7 7 -6 4 4 -2 8 -14 16 -28 17
-19 1 -20 1 -4 -4z"/>
<path d="M5433 1215 c0 -22 2 -30 4 -17 2 12 2 30 0 40 -3 9 -5 -1 -4 -23z"/>
<path d="M4817 1215 c3 -8 9 -12 14 -9 12 7 11 11 -5 17 -10 4 -13 1 -9 -8z"/>
<path d="M5650 1214 c0 -18 27 -36 47 -31 14 4 14 5 -4 6 -12 0 -27 9 -32 19
-6 9 -11 12 -11 6z"/>
<path d="M5030 1201 c0 -5 5 -13 10 -16 6 -3 10 -2 10 4 0 5 -4 13 -10 16 -5
3 -10 2 -10 -4z"/>
<path d="M5226 1193 c-6 -14 -5 -15 5 -6 7 7 10 15 7 18 -3 3 -9 -2 -12 -12z"/>
<path d="M5770 1188 c0 -4 16 -8 35 -8 19 0 35 2 35 4 0 2 -16 6 -35 8 -19 2
-35 0 -35 -4z"/>
<path d="M5898 1183 c7 -3 16 -2 19 1 4 3 -2 6 -13 5 -11 0 -14 -3 -6 -6z"/>
<path d="M17618 796 c-135 -36 -200 -183 -138 -311 70 -145 294 -159 378 -23
107 173 -46 386 -240 334z m12 -181 c7 -25 16 -47 20 -50 3 -2 14 18 24 46 10
27 24 49 32 49 11 0 8 -15 -11 -67 -14 -37 -28 -69 -30 -71 -13 -13 -34 13
-53 66 -26 70 -26 72 -8 72 7 0 19 -20 26 -45z m120 -25 c0 -40 -4 -70 -10
-70 -6 0 -10 30 -10 70 0 40 4 70 10 70 6 0 10 -30 10 -70z"/>
<path d="M4983 780 c-3 -11 -10 -20 -15 -20 -7 0 -7 -4 0 -13 6 -6 12 -28 15
-47 4 -33 4 -33 5 8 1 26 7 42 15 42 8 0 7 4 -3 11 -11 8 -12 12 -2 16 15 6
16 23 1 23 -6 0 -13 -9 -16 -20z"/>
<path d="M5401 740 l-1 -66 34 -2 c39 -3 59 20 49 56 -5 22 -43 39 -62 28 -5
-4 -12 6 -14 21 -2 16 -5 -1 -6 -37z m57 1 c20 -12 11 -56 -12 -56 -27 0 -43
29 -27 49 15 18 21 19 39 7z"/>
<path d="M5610 790 c0 -5 5 -10 11 -10 5 0 7 5 4 10 -3 6 -8 10 -11 10 -2 0
-4 -4 -4 -10z"/>
<path d="M5653 735 c0 -38 2 -53 4 -32 2 20 2 52 0 70 -2 17 -4 1 -4 -38z"/>
<path d="M5760 774 c0 -15 -4 -23 -11 -19 -17 11 -56 -4 -61 -23 -3 -10 -1
-28 3 -40 7 -18 15 -22 44 -20 l35 2 0 63 c0 35 -2 63 -5 63 -3 0 -5 -12 -5
-26z m-6 -47 c8 -12 7 -21 -6 -33 -22 -22 -48 -11 -48 20 0 37 34 45 54 13z"/>
<path d="M4782 730 c-11 -33 -16 -60 -11 -60 5 0 9 7 9 15 0 21 56 20 64 -1 4
-9 9 -15 11 -12 8 7 -30 111 -42 115 -6 2 -20 -23 -31 -57z m47 -7 c1 -7 -8
-13 -19 -13 -23 0 -23 0 -9 37 10 26 12 27 19 8 5 -11 9 -26 9 -32z"/>
<path d="M4880 730 c0 -33 4 -60 10 -60 6 0 10 27 10 60 0 33 -4 60 -10 60 -6
0 -10 -27 -10 -60z"/>
<path d="M5036 745 c-19 -19 -20 -29 -6 -56 13 -23 53 -25 70 -3 10 11 11 23
4 42 -11 32 -44 40 -68 17z m49 -30 c0 -23 -4 -30 -20 -30 -21 0 -31 25 -21
51 11 28 41 12 41 -21z"/>
<path d="M5131 710 c1 -44 1 -44 9 -12 4 18 16 39 26 47 17 12 17 13 -9 12
-25 -2 -27 -5 -26 -47z"/>
<path d="M5202 711 c1 -45 1 -45 5 -8 7 66 51 60 54 -8 2 -26 3 -24 8 10 8 53
35 55 39 3 4 -48 22 -50 22 -4 0 43 -11 51 -77 52 l-53 0 2 -45z"/>
<path d="M5505 746 c-4 -10 -4 -30 1 -45 8 -20 16 -26 42 -27 32 -1 32 -1 31
45 -1 25 -3 37 -6 26 -2 -11 -6 -30 -9 -43 -8 -39 -38 -23 -45 23 -4 32 -7 36
-14 21z"/>
<path d="M5613 715 c0 -27 2 -38 4 -22 2 15 2 37 0 50 -2 12 -4 0 -4 -28z"/>
<path d="M5814 752 c-17 -11 -22 -35 -13 -60 7 -18 15 -23 36 -20 14 2 29 10
31 18 5 13 3 13 -11 1 -18 -14 -47 -9 -47 9 0 5 16 10 35 10 38 0 40 2 25 31
-11 19 -36 25 -56 11z m44 -19 c2 -8 -6 -13 -22 -13 -25 0 -33 10 -19 24 10
10 36 3 41 -11z"/>
<path d="M5902 710 c1 -37 2 -39 5 -12 3 18 11 36 19 39 21 8 17 19 -6 19 -17
0 -20 -6 -18 -46z"/>
<path d="M4401 666 c-38 -82 -24 -99 80 -99 77 0 101 12 78 39 -7 9 -12 27
-11 40 3 22 1 23 -50 20 -30 -1 -62 1 -73 5 -18 7 -18 8 3 8 14 1 22 6 20 13
-9 26 -27 16 -47 -26z"/>
<path d="M4516 703 c-11 -11 -6 -23 9 -23 8 0 15 4 15 9 0 13 -16 22 -24 14z"/>
<path d="M16379 633 c-12 -16 -12 -17 1 -6 8 6 26 13 40 16 l25 4 -26 2 c-15
0 -33 -7 -40 -16z"/>
<path d="M16978 594 c-1 -31 0 -58 5 -61 4 -2 7 23 7 56 0 76 -7 79 -12 5z"/>
<path d="M16747 622 c-2 -4 0 -23 4 -42 l6 -35 2 32 c0 17 6 33 13 35 8 3 6 7
-5 11 -9 3 -18 3 -20 -1z"/>
<path d="M16562 608 c-24 -24 -13 -38 26 -36 36 1 36 1 5 5 -38 5 -43 20 -10
33 13 5 16 9 7 9 -9 1 -21 -4 -28 -11z"/>
<path d="M16659 603 c-13 -16 -12 -17 3 -4 10 7 25 11 33 7 9 -3 13 -2 10 4
-10 15 -31 12 -46 -7z"/>
<path d="M16822 608 c-24 -24 -13 -38 26 -36 36 1 36 1 5 5 -38 5 -43 20 -10
33 13 5 16 9 7 9 -9 1 -21 -4 -28 -11z"/>
<path d="M16920 605 c-7 -9 -10 -18 -6 -22 3 -3 6 -1 6 6 0 6 10 16 23 21 15
6 17 9 6 9 -9 1 -22 -6 -29 -14z"/>
<path d="M16362 590 c0 -14 2 -19 5 -12 2 6 2 18 0 25 -3 6 -5 1 -5 -13z"/>
<path d="M16493 570 c0 -25 2 -35 4 -22 2 12 2 32 0 45 -2 12 -4 2 -4 -23z"/>
<path d="M17075 599 c-4 -6 -5 -12 -2 -15 2 -3 7 2 10 11 7 17 1 20 -8 4z"/>
<path d="M830 590 c0 -5 5 -10 10 -10 6 0 10 5 10 10 0 6 -4 10 -10 10 -5 0
-10 -4 -10 -10z"/>
<path d="M1060 535 c0 -37 4 -65 10 -65 6 0 10 7 10 17 0 15 1 15 18 0 28 -25
37 -20 17 9 -16 24 -16 27 1 45 14 15 14 19 3 19 -8 0 -20 -5 -27 -12 -9 -9
-12 -5 -12 20 0 18 -4 32 -10 32 -6 0 -10 -28 -10 -65z"/>
<path d="M721 538 c25 -63 28 -68 39 -68 10 0 36 55 46 97 11 40 -15 25 -27
-17 -7 -22 -16 -40 -20 -40 -5 0 -14 18 -20 40 -7 22 -18 40 -25 40 -11 0 -9
-12 7 -52z"/>
<path d="M16685 581 c-34 -7 -44 -44 -12 -47 12 -1 13 -1 2 3 -26 8 -17 33 11
33 19 0 25 -4 21 -15 -4 -8 -2 -17 3 -20 6 -4 10 7 10 24 0 17 -1 30 -2 30 -2
-1 -16 -4 -33 -8z"/>
<path d="M17141 574 c0 -11 3 -14 6 -6 3 7 2 16 -1 19 -3 4 -6 -2 -5 -13z"/>
<path d="M16910 564 c0 -17 27 -37 42 -31 8 4 7 6 -4 6 -9 1 -22 9 -27 19 -6
9 -11 12 -11 6z"/>
<path d="M830 515 c0 -25 5 -45 10 -45 6 0 10 20 10 45 0 25 -4 45 -10 45 -5
0 -10 -20 -10 -45z"/>
<path d="M878 515 c9 -25 22 -45 28 -45 7 0 19 18 28 40 19 48 19 50 5 50 -5
0 -15 -14 -21 -31 l-11 -31 -13 31 c-21 49 -35 37 -16 -14z"/>
<path d="M959 539 c-17 -34 3 -69 40 -69 16 0 33 5 36 11 11 16 -3 23 -19 10
-8 -7 -20 -10 -26 -6 -20 12 -10 25 20 25 31 0 35 6 24 34 -9 24 -61 20 -75
-5z m56 -9 c-3 -5 -13 -10 -21 -10 -8 0 -14 5 -14 10 0 6 9 10 21 10 11 0 17
-4 14 -10z"/>
<path d="M16379 548 c7 -10 24 -18 36 -18 12 0 29 8 36 18 11 14 11 15 -1 5
-8 -7 -23 -13 -35 -13 -12 0 -27 6 -35 13 -12 10 -12 9 -1 -5z"/>
<path d="M16562 544 c9 -9 21 -15 27 -13 6 2 -2 10 -17 17 -25 11 -25 11 -10
-4z"/>
<path d="M16822 544 c9 -9 21 -15 27 -13 6 2 -2 10 -17 17 -25 11 -25 11 -10
-4z"/>
<path d="M17070 551 c0 -15 49 -26 62 -13 8 8 5 9 -11 5 -11 -3 -28 0 -36 7
-10 8 -15 9 -15 1z"/>
<path d="M17190 551 c0 -5 5 -13 10 -16 6 -3 10 -2 10 4 0 5 -4 13 -10 16 -5
3 -10 2 -10 -4z"/>
<path d="M4772 468 c1 -57 2 -59 5 -15 3 30 8 45 15 41 6 -4 6 1 -1 15 -7 11
-14 21 -16 21 -3 0 -4 -28 -3 -62z"/>
<path d="M4866 513 c-6 -14 -5 -15 5 -6 7 7 10 15 7 18 -3 3 -9 -2 -12 -12z"/>
<path d="M5168 483 c5 -76 10 -83 11 -15 0 34 -2 62 -7 62 -4 0 -6 -21 -4 -47z"/>
<path d="M5218 523 c12 -2 32 -2 45 0 12 2 2 4 -23 4 -25 0 -35 -2 -22 -4z"/>
<path d="M5373 470 c0 -36 2 -50 4 -32 2 17 2 47 0 65 -2 17 -4 3 -4 -33z"/>
<path d="M5555 519 c-11 -16 -1 -19 13 -3 7 8 8 14 3 14 -5 0 -13 -5 -16 -11z"/>
<path d="M5662 518 c-7 -7 -12 -16 -12 -22 0 -5 6 -2 13 9 10 12 22 16 40 13
15 -3 24 -1 21 3 -8 13 -48 11 -62 -3z"/>
<path d="M5777 523 c-3 -5 8 -8 23 -8 15 0 26 3 23 8 -2 4 -13 7 -23 7 -10 0
-21 -3 -23 -7z"/>
<path d="M5893 523 c9 -2 23 -2 30 0 6 3 -1 5 -18 5 -16 0 -22 -2 -12 -5z"/>
<path d="M5308 509 c-8 -25 7 -92 22 -96 12 -4 12 -2 2 5 -8 5 -12 25 -11 50
3 41 -5 65 -13 41z"/>
<path d="M5610 495 c0 -8 -14 -30 -31 -50 l-31 -35 38 1 c31 2 33 3 11 6 l-28
4 26 30 c22 27 33 59 20 59 -3 0 -5 -7 -5 -15z"/>
<path d="M5872 490 c0 -14 2 -19 5 -12 2 6 2 18 0 25 -3 6 -5 1 -5 -13z"/>
<path d="M5732 470 c0 -19 2 -27 5 -17 2 9 2 25 0 35 -3 9 -5 1 -5 -18z"/>
<path d="M4972 462 c-2 -24 -8 -35 -24 -42 -13 -5 -16 -9 -8 -9 29 -1 42 15
37 50 l-4 34 -1 -33z"/>
<path d="M5905 483 c11 -3 24 -10 28 -17 6 -7 7 -6 4 4 -2 8 -14 16 -28 17
-19 1 -20 1 -4 -4z"/>
<path d="M355 463 c4 -10 14 -37 22 -61 8 -24 20 -41 25 -40 13 5 50 97 45
112 -2 6 -13 -14 -24 -44 l-21 -54 -18 52 c-10 28 -23 52 -27 52 -5 0 -6 -8
-2 -17z"/>
<path d="M5433 445 c0 -22 2 -30 4 -17 2 12 2 30 0 40 -3 9 -5 -1 -4 -23z"/>
<path d="M4817 445 c3 -8 9 -12 14 -9 12 7 11 11 -5 17 -10 4 -13 1 -9 -8z"/>
<path d="M5650 444 c0 -18 27 -36 47 -31 14 4 14 5 -4 6 -12 0 -27 9 -32 19
-6 9 -11 12 -11 6z"/>
<path d="M2820 420 c0 -13 5 -20 13 -17 6 2 12 10 12 17 0 7 -6 15 -12 18 -8
2 -13 -5 -13 -18z"/>
<path d="M2874 429 c-10 -17 13 -36 27 -22 12 12 4 33 -11 33 -5 0 -12 -5 -16
-11z"/>
<path d="M2935 430 c-7 -12 2 -30 16 -30 5 0 9 9 9 20 0 21 -15 27 -25 10z"/>
<path d="M5030 431 c0 -5 5 -13 10 -16 6 -3 10 -2 10 4 0 5 -4 13 -10 16 -5 3
-10 2 -10 -4z"/>
<path d="M5226 423 c-6 -14 -5 -15 5 -6 7 7 10 15 7 18 -3 3 -9 -2 -12 -12z"/>
<path d="M5770 418 c0 -4 16 -8 35 -8 19 0 35 2 35 4 0 2 -16 6 -35 8 -19 2
-35 0 -35 -4z"/>
<path d="M5898 413 c7 -3 16 -2 19 1 4 3 -2 6 -13 5 -11 0 -14 -3 -6 -6z"/>
<path d="M790 359 c0 -5 5 -7 10 -4 6 3 10 8 10 11 0 2 -4 4 -10 4 -5 0 -10
-5 -10 -11z"/>
<path d="M992 315 c0 -34 3 -52 7 -42 6 17 8 17 20 3 7 -9 18 -16 24 -16 5 0
2 9 -8 20 -14 16 -16 23 -7 32 20 20 13 32 -7 14 -19 -17 -20 -17 -24 16 -2
19 -4 7 -5 -27z"/>
<path d="M1515 360 c3 -5 8 -10 11 -10 2 0 4 5 4 10 0 6 -5 10 -11 10 -5 0 -7
-4 -4 -10z"/>
<path d="M1553 315 c0 -33 2 -45 4 -27 2 18 2 45 0 60 -2 15 -4 0 -4 -33z"/>
<path d="M1153 344 c22 -12 27 -21 25 -41 -2 -15 -9 -28 -15 -31 -9 -2 -11 5
-7 26 5 23 2 29 -13 29 -26 0 -43 -16 -43 -43 0 -21 4 -23 38 -22 40 1 52 11
52 45 0 21 -34 53 -55 53 -5 -1 3 -8 18 -16z m-9 -33 c9 -14 -4 -41 -20 -41
-8 0 -14 8 -14 18 0 29 22 43 34 23z"/>
<path d="M1087 332 c-20 -22 -22 -73 -5 -90 7 -7 23 -11 38 -11 23 1 23 2 -5
8 -26 5 -30 11 -33 43 -2 28 2 40 20 52 12 9 18 16 12 16 -6 0 -18 -8 -27 -18z"/>
<path d="M820 336 c0 -10 31 -76 36 -76 6 0 34 65 34 77 -1 4 -9 -7 -19 -26
l-18 -34 -11 32 c-9 26 -22 42 -22 27z"/>
<path d="M912 328 c-25 -25 -6 -68 29 -68 10 0 21 5 24 10 4 7 -2 9 -19 4 -20
-5 -26 -2 -26 10 0 10 9 16 25 16 28 0 34 24 9 34 -22 8 -28 8 -42 -6z m43 -8
c3 -5 -3 -10 -15 -10 -12 0 -18 5 -15 10 3 6 10 10 15 10 5 0 12 -4 15 -10z"/>
<path d="M1225 328 c-3 -7 -6 -31 -7 -53 -3 -38 -2 -40 27 -40 37 0 41 26 5
35 -24 6 -24 7 -4 14 12 3 24 18 27 31 3 21 0 25 -20 25 -13 0 -26 -6 -28 -12z
m33 -15 c-4 -22 -22 -20 -26 1 -2 10 3 16 13 16 10 0 15 -7 13 -17z m12 -63
c0 -5 -11 -10 -25 -10 -14 0 -25 5 -25 10 0 6 11 10 25 10 14 0 25 -4 25 -10z"/>
<path d="M1301 296 l2 -41 6 35 c4 22 12 35 21 35 9 0 17 -13 21 -35 l6 -35 4
35 c2 23 9 35 19 35 9 0 18 -13 22 -35 l6 -35 -1 40 -2 40 -52 1 -53 1 1 -41z"/>
<path d="M1443 333 c-7 -2 -13 -9 -13 -15 0 -6 6 -5 15 2 11 9 19 10 26 3 7
-7 2 -13 -16 -17 -36 -9 -30 -41 8 -42 26 -1 28 1 25 35 -3 35 -17 46 -45 34z
m37 -43 c0 -12 -28 -25 -36 -17 -9 9 6 27 22 27 8 0 14 -5 14 -10z"/>
<path d="M1622 328 c-25 -25 -6 -68 29 -68 10 0 21 5 24 10 4 7 -2 9 -18 5
-30 -8 -45 21 -23 43 12 13 18 13 30 2 9 -7 16 -8 16 -2 0 9 -22 22 -39 22 -4
0 -12 -5 -19 -12z"/>
<path d="M1712 331 c-8 -4 -12 -21 -10 -37 2 -23 8 -29 27 -29 31 0 50 28 35
53 -13 20 -34 25 -52 13z m43 -21 c8 -24 -1 -40 -21 -40 -17 0 -28 24 -20 45
8 22 34 18 41 -5z"/>
<path d="M1791 296 l2 -41 6 35 c4 22 12 35 21 35 9 0 17 -13 21 -35 l6 -35 4
35 c2 23 9 35 19 35 9 0 18 -13 22 -35 l6 -35 -1 40 -2 40 -52 1 -53 1 1 -41z"/>
<path d="M710 329 c-1 -15 23 -69 30 -69 4 0 13 14 19 31 15 43 13 51 -4 15
l-12 -30 -16 30 c-9 16 -16 26 -17 23z"/>
<path d="M790 295 c0 -19 5 -35 10 -35 6 0 10 16 10 35 0 19 -4 35 -10 35 -5
0 -10 -16 -10 -35z"/>
<path d="M1523 295 c0 -22 2 -30 4 -17 2 12 2 30 0 40 -3 9 -5 -1 -4 -23z"/>
</g>
</svg>
